<?xml version="1.0" encoding="UTF-8"?>
<svg id="Layer_1" xmlns="http://www.w3.org/2000/svg" version="1.1" viewBox="0 0 1024 380">
  <!-- Generator: Adobe Illustrator 29.3.1, SVG Export Plug-In . SVG Version: 2.1.0 Build 151)  -->
  <path d="M698.6,243.2h26.8v-51.5c0-28.9,9.2-35.9,52.9-35.9s55,7,55,35.9v51.5h26.8v-51.5c0-46.5-24.7-62.7-81.8-62.7s-79.7,16.2-79.7,62.7v51.5h0ZM601,246.7c31,0,57.1-5.6,86.7-19v-43c0-35.9-28.9-55.7-80.4-55.7s-57.8,4.2-77.5,13.4v28.2c18.3-9.9,44.4-14.8,77.5-14.8s53.6,10.6,53.6,28.9v26.1c-16.9,7-35.2,10.6-59.9,10.6s-53.6-4.9-53.6-12,19-10.6,50-10.6,38.8,2.8,47.2,4.9v-26.8c-10.6-2.1-28.9-4.9-43-4.9-53.6,0-81.1,14.1-81.1,37.4s27.5,37.4,80.4,37.4h0ZM438.6,247.4c48.6,0,76.8-21.1,76.8-58.5s-33.1-59.9-89.5-59.9-85.3,26.1-85.3,73.3v48.6h26.8v-48.6c0-31,19.7-46.5,58.5-46.5s61.3,12,61.3,33.1-17.6,32.4-48.6,32.4-38.8-4.9-55-12.7v28.2c16.2,6.3,41.6,10.6,55,10.6ZM256.6,246.7c46.5,0,76.8-14.1,76.8-37.4s-23.3-32.4-77.5-34.5c-37.4-1.4-64.1-3.5-64.1-8.5s19-10.6,49.3-10.6,71.2,5.6,90.2,18.3v-31c-21.9-9.2-60.6-14.1-90.2-14.1-44.4,0-76.1,15.5-76.1,37.4s26.8,32.4,80.4,34.5c36.7,1.4,60.6,3.5,60.6,8.5s-23.3,10.6-55,10.6-68.4-6.3-84.6-17.6v30.3c16.9,8.5,51.5,14.1,90.2,14.1h0Z"/>
</svg>