<?xml version="1.0" encoding="UTF-8"?>
<svg id="Layer_2" data-name="Layer 2" xmlns="http://www.w3.org/2000/svg" viewBox="0 0 310.37 59.42">
  <defs>
    <style>
      .cls-1 {
        stroke-width: 0px;
      }
    </style>
  </defs>
  <g id="Layer_1-2" data-name="Layer 1">
    <g>
      <path class="cls-1" d="m176.17,59.16c.73-.62,1.41-1.07,1.92-1.66,2.26-2.63,1.93-6.01-.78-8.29-8.22-6.92-16.47-13.8-24.68-20.74-5-4.22-7.03-9.62-5.52-16.01,1.52-6.42,5.77-10.36,12.14-12,.21-.05.44-.04.85-.07-.62.5-1.13.84-1.54,1.27-2.51,2.6-2.26,6.16.63,8.59,8.15,6.86,16.3,13.72,24.48,20.54,7.84,6.54,8.19,17.59.7,24.51-2.27,2.1-5.01,3.28-8.18,3.85Z"/>
      <path class="cls-1" d="m121.03,27.28c-.26,2.44-2.47,4.44-5.12,4.58-2.41.13-4.83.12-7.24.09-.98-.01-1.3.3-1.31,1.3-.03,3.93.18,7.89-.32,11.77-.75,5.84-4.08,10.09-9.39,12.68-1.04.51-2.24.7-3.38.98-.97.24-1.35-.16-1.34-1.19.04-4.21.02-8.43.02-12.65,0-14.3,0-28.61,0-42.91V.16h14.44c0,.59,0,1.14,0,1.7,0,7.96.03,15.91-.03,23.87,0,1.28.38,1.61,1.61,1.58,3.55-.08,7.1-.03,10.66-.03h1.41Z"/>
      <path class="cls-1" d="m280.42.15c10.05,19.89,19.94,39.45,29.95,59.25-1.63,0-3.02,0-4.41,0-3.55,0-7.1-.03-10.65.02-.83.01-1.28-.27-1.64-1-6.95-13.82-13.93-27.63-20.88-41.45-.2-.41-.33-1.06-.15-1.43,2.5-5.04,5.06-10.05,7.78-15.39Z"/>
      <path class="cls-1" d="m29.85,59.24C19.83,39.4,9.95,19.87,0,.17.54.12.89.06,1.24.06c4.55,0,9.09.03,13.64-.03.96-.01,1.41.33,1.83,1.15,6.87,13.65,13.77,27.29,20.63,40.95.26.52.44,1.35.21,1.81-2.46,5.01-5,9.98-7.7,15.3Z"/>
      <path class="cls-1" d="m27.36.05c5.38,0,10.44-.03,15.5.05.42,0,.99.63,1.23,1.1,4.47,8.77,8.9,17.56,13.33,26.35,2.45,4.86,4.9,9.72,7.37,14.57.36.71.55,1.28.13,2.1-2.4,4.62-4.73,9.27-7.09,13.92-.14.28-.34.54-.62.98C47.26,39.42,37.39,19.89,27.36.05Z"/>
      <path class="cls-1" d="m207.05.36c3.55-.22,6.51,1.09,9.07,3.21,3.29,2.73,5.16,6.34,5.19,10.63.07,14.76.03,29.53.03,44.29,0,.23-.04.46-.07.8h-14.21V.36Z"/>
      <path class="cls-1" d="m223.88,1.59c6.33-1.83,12.57-2.5,18.66.32,8.1,3.76,12.74,12.85,11.36,21.88-1.54,10.11-6.97,15.82-17.06,17.59-4.32.76-8.65.42-12.99-1.05,15.41-3.89,19.43-22.6,10.98-32.65-2.6-3.09-5.94-4.92-9.89-5.66-.28-.05-.55-.11-.83-.17-.04,0-.06-.06-.24-.25Z"/>
      <path class="cls-1" d="m130.12,59.32h-18.6c2.99-5.97,5.91-11.82,8.83-17.66,5.07,2.02,10.65,12.11,9.78,17.66Z"/>
      <path class="cls-1" d="m155.7,41.58c2.93,5.86,5.86,11.71,8.87,17.72h-18.6c-.77-5.58,4.28-14.83,9.74-17.72Z"/>
      <path class="cls-1" d="m272.14,59.35h-18.61c3-6,5.93-11.85,8.86-17.7,5.18,2.28,10.45,11.84,9.75,17.7Z"/>
      <path class="cls-1" d="m120.36,17.75c-2.93-5.85-5.82-11.63-8.79-17.58h18.5c.82,5.07-4.28,15.25-9.71,17.58Z"/>
      <path class="cls-1" d="m63.86.12h18.64c-2.98,5.96-5.89,11.78-8.8,17.6-5.09-2.18-10.27-11.45-9.84-17.6Z"/>
      <path class="cls-1" d="m170.66.14h18.57c.68,5.67-4.34,14.86-9.73,17.65-2.92-5.83-5.84-11.67-8.84-17.65Z"/>
    </g>
  </g>
</svg>