<?xml version="1.0" encoding="UTF-8"?>
<svg xmlns="http://www.w3.org/2000/svg" width="121" height="18" viewBox="0 0 121 18" fill="none">
  <path d="M40.0464 0H43.4088V6.1272C44.2728 4.9968 45.7632 4.2768 47.5416 4.2768C50.544 4.2768 52.7328 6.2928 52.7328 9.972V17.784H49.3704V10.4328C49.3704 8.2944 48.1896 7.1424 46.4112 7.1424C44.5824 7.1424 43.4088 8.2944 43.4088 10.4328V17.784H40.0464V0V0Z" fill="#191414"></path>
  <path d="M67.8957 17.784H64.5045V16.0992C63.6621 17.2296 62.2005 17.9496 60.5373 17.9496C57.4341 17.9496 55.2021 15.9336 55.2021 12.276V4.4712H58.5717V11.8008C58.5717 13.9392 59.7525 15.0912 61.5309 15.0912C63.3597 15.0912 64.5117 13.9392 64.5117 11.8008V4.4712H67.9029V17.784H67.8957Z" fill="#191414"></path>
  <path d="M75.8518 4.2552C77.6086 4.2552 79.2862 5.0688 80.2006 6.3216V0H83.6134V17.784H80.2006V15.8112C79.4086 17.0352 77.9182 18 75.8302 18C72.439 18 69.7534 15.2352 69.7534 11.0808C69.7462 6.9192 72.439 4.2552 75.8518 4.2552ZM76.6942 7.2072C74.8942 7.2072 73.1878 8.5536 73.1878 11.0736C73.1878 13.5936 74.8942 15.0408 76.6942 15.0408C78.5446 15.0408 80.2294 13.644 80.2294 11.124C80.2294 8.604 78.5446 7.2072 76.6942 7.2072Z" fill="#191414"></path>
  <path d="M91.5481 4.2552C93.3049 4.2552 94.9825 5.0688 95.8969 6.3216V0H99.3097V17.784H95.8969V15.8112C95.1049 17.0352 93.6145 18 91.5265 18C88.1353 18 85.4497 15.2352 85.4497 11.0808C85.4425 6.9192 88.1353 4.2552 91.5481 4.2552ZM92.3833 7.2072C90.5833 7.2072 88.8769 8.5536 88.8769 11.0736C88.8769 13.5936 90.5833 15.0408 92.3833 15.0408C94.2337 15.0408 95.9185 13.644 95.9185 11.124C95.9185 8.604 94.2337 7.2072 92.3833 7.2072Z" fill="#191414"></path>
  <path d="M102.002 0H105.365V17.784H102.002V0Z" fill="#191414"></path>
  <path d="M113.897 18C110.031 18 107.215 15.3072 107.215 11.124C107.215 6.9192 109.951 4.248 113.897 4.248C117.742 4.248 120.456 6.8688 120.456 10.836C120.456 11.268 120.435 11.7 120.363 12.132H110.628C110.794 14.1048 112.14 15.2064 113.825 15.2064C115.265 15.2064 116.057 14.4864 116.489 13.5936H120.118C119.398 16.056 117.187 18 113.897 18ZM110.65 9.8784H116.971C116.921 8.1216 115.531 7.02 113.796 7.02C112.191 7.02 110.916 8.0496 110.65 9.8784Z" fill="#191414"></path>
  <path d="M33.5737 0H34.8409V0.3888H34.4593V1.6776H33.9553L33.9625 0.3888H33.5737V0V0ZM35.1073 0H35.7697L36.1729 1.08L36.6121 0H37.2313V1.6848H36.7705L36.7633 0.6264L36.3313 1.6848H35.9929L35.5609 0.5904V1.6848H35.1145V0H35.1073Z" fill="#B9A096"></path>
  <path d="M24.4225 4.752V0H21.0601V3.24C22.2409 3.6288 23.3641 4.14 24.4225 4.752Z" fill="#B9A096"></path>
  <path d="M22.7447 12.3408C22.6223 12.2256 22.4927 12.1176 22.3703 12.0096C22.3559 12.0024 22.3487 11.988 22.3343 11.9808C22.2119 11.88 22.0895 11.7792 21.9599 11.6784C21.9383 11.664 21.9239 11.6496 21.9023 11.6352C21.7799 11.5416 21.6503 11.448 21.5207 11.3616C21.4991 11.3472 21.4847 11.3328 21.4631 11.3256C21.3335 11.2392 21.1967 11.1528 21.0599 11.0664L21.0527 11.0592H10.0943V0H6.73193V17.784H10.0943V14.4216H21.0599V17.784H24.4223V14.3568C23.9471 13.6152 23.3783 12.9384 22.7447 12.3408Z" fill="#B9A096"></path>
  <path d="M27.7848 0V10.0656C24.8904 6.5232 20.4912 4.2624 15.5736 4.2624C14.2632 4.2624 12.9888 4.4208 11.772 4.7232V8.2224C12.9672 7.8336 14.2488 7.6248 15.5736 7.6248C21.6504 7.6248 26.712 12.0096 27.7776 17.784H31.1544V0H27.7848Z" fill="#B9A096"></path>
  <path d="M3.3624 10.0656V0H0V17.784H3.3768C3.6648 16.2288 4.2408 14.7744 5.0472 13.4784V8.3016C4.4424 8.8488 3.8808 9.4392 3.3624 10.0656Z" fill="#B9A096"></path>
</svg>
