<svg width="202" height="70" viewBox="0 0 202 70" fill="none" xmlns="http://www.w3.org/2000/svg">
<rect width="202" height="70" rx="4" fill="#16141B"/>
<path d="M108.848 23.587H102.904C102.766 23.587 102.662 23.6522 102.628 23.75L99.518 30.663C99.4144 30.8913 99.0688 30.8913 98.9652 30.663L95.8899 23.75C95.8554 23.6522 95.7517 23.587 95.6135 23.587H89.6011C89.3938 23.587 89.2556 23.8152 89.3247 23.9783L96.1663 37.2174C96.1663 37.25 96.1663 37.2826 96.1663 37.3478V46.1522C96.1663 46.3152 96.3045 46.413 96.4773 46.413H102.04C102.213 46.413 102.351 46.3152 102.351 46.1522V37.3478C102.351 37.2826 102.351 37.25 102.386 37.2174L109.124 23.9783C109.228 23.8152 109.089 23.587 108.848 23.587Z" fill="#ACEF34"/>
<path fill-rule="evenodd" clip-rule="evenodd" d="M74.0194 46.5109H74.8177C74.9213 46.5109 75.0595 46.4456 75.0941 46.3152L76.3726 42.663C76.4071 42.5652 76.5108 42.4674 76.649 42.4674H84.0435C84.1817 42.4674 84.2854 42.5652 84.3199 42.663L85.5984 46.2826C85.633 46.413 85.7712 46.5109 85.944 46.5109H91.9217C92.1291 46.5109 92.2673 46.3152 92.1982 46.1522L83.3179 23.8478C83.2488 23.7174 83.1105 23.6196 82.9723 23.6196H77.7547C77.582 23.6196 77.4437 23.7174 77.3746 23.8804L70.547 40.979H63.493C63.3548 40.979 63.2166 40.8811 63.2166 40.7181V23.6637C63.2166 23.5333 63.0784 23.4029 62.9056 23.4029H57.3425C57.1697 23.4029 57.066 23.5333 57.066 23.6637V45.4269C57.066 45.5899 57.5899 46.413 57.7627 46.413C59.1613 46.413 61.2578 46.4444 63.5081 46.4781C67.5853 46.5391 72.1675 46.6076 74.0194 46.5109ZM78.4804 37.8043H82.2121C82.4195 37.8043 82.5577 37.6087 82.4886 37.413L80.6572 32.0978C80.5536 31.837 80.1389 31.837 80.0698 32.0978L78.2039 37.4456C78.1348 37.6087 78.273 37.8043 78.4804 37.8043Z" fill="#ACEF34"/>
<path d="M51.3648 25.0985C50.0518 24.0551 48.3932 23.4029 44.074 23.4029H36.6104C36.4376 23.4029 36.334 23.5333 36.334 23.6964V45.9681C36.334 46.1311 36.4376 46.229 36.6104 46.229H42.1736C42.3463 46.229 42.4845 46.1311 42.4845 45.9681V39.4137C42.4845 39.2507 42.6228 39.1529 42.761 39.1529H44.7305C48.4969 39.1529 50.0518 38.4355 51.6413 37.1637C53.1271 35.9246 54.1637 33.5116 54.1637 31.1637C54.1637 28.7181 53.1271 26.5007 51.3648 25.0985ZM46.8729 33.5442C46.0781 33.8703 45.1452 33.8703 44.5923 33.8703H42.761C42.6228 33.8703 42.4845 33.7724 42.4845 33.6094V28.9464C42.4845 28.7833 42.6228 28.6529 42.761 28.6529H44.3504C45.007 28.6529 46.009 28.6529 46.8038 29.0116C47.7713 29.4029 48.255 30.1203 48.255 31.229C48.255 32.0442 48.0131 33.0877 46.8729 33.5442Z" fill="#ACEF34"/>
<path d="M122.485 23C115.643 23 110.08 28.3804 110.08 35C110.08 41.6196 115.643 47 122.485 47C129.361 47 134.924 41.6196 134.924 35C134.924 28.3804 129.361 23 122.485 23ZM122.485 41.5543C118.753 41.5543 115.678 38.6196 115.678 35C115.678 31.3804 118.753 28.4457 122.485 28.4457C126.251 28.4457 129.292 31.3804 129.292 35C129.292 38.6196 126.251 41.5543 122.485 41.5543Z" fill="white"/>
<path d="M150.869 23.4029C151.042 23.4029 151.18 23.5007 151.18 23.6637L151.629 28.3268C151.629 28.4898 151.491 28.6529 151.318 28.6529H144.339C144.311 28.6529 144.285 28.6562 144.259 28.6623H137.877V23.6637C137.877 23.5333 137.981 23.4029 138.154 23.4029H150.869Z" fill="white"/>
<path d="M137.877 32.6069V45.9355C137.877 46.0985 137.981 46.229 138.154 46.229H143.717C143.889 46.229 144.028 46.0985 144.028 45.9355V37.5877C144.028 37.4246 144.166 37.2942 144.339 37.2942H149.418C149.591 37.2942 149.729 37.1637 149.729 37.0333L149.762 32.6069H137.877Z" fill="white"/>
<path d="M154.58 32.6069V45.9355C154.58 46.0985 154.684 46.229 154.857 46.229H160.42C160.593 46.229 160.731 46.0985 160.731 45.9355V37.5877C160.731 37.4246 160.869 37.2942 161.042 37.2942H166.121C166.294 37.2942 166.432 37.1637 166.432 37.0333L166.465 32.6069H154.58Z" fill="white"/>
<path d="M160.963 28.6623C160.988 28.6562 161.014 28.6529 161.042 28.6529H168.022C168.194 28.6529 168.333 28.4898 168.333 28.3268L167.883 23.6637C167.883 23.5007 167.745 23.4029 167.572 23.4029H154.857C154.684 23.4029 154.58 23.5333 154.58 23.6637V28.6623H160.963Z" fill="white"/>
</svg>
