<svg width="642" height="107" viewBox="0 0 642 107" fill="none" xmlns="http://www.w3.org/2000/svg">
<path d="M119.898 57.0422C128.66 52.0099 137.398 46.9366 146.189 41.9563C154.534 37.2284 164.352 41.5887 166.244 50.7895C167.339 56.112 164.962 61.8618 160.157 64.6622C144.403 73.8428 128.626 82.987 112.771 91.9913C107.864 94.778 102.809 94.2654 98.3363 90.8503C93.7931 87.3831 92.3614 82.6006 93.4269 77.0342C94.6434 72.7968 97.4275 69.9638 101.225 67.8445C107.503 64.3409 113.678 60.6525 119.898 57.0422Z" fill="#FABC05"/>
<path d="M126.331 53.3828C117.591 48.3114 108.829 43.2797 100.12 38.157C91.853 33.2938 90.7211 22.6112 97.7427 16.3716C101.804 12.7632 107.972 11.9455 112.8 14.7069C128.628 23.76 144.435 32.8515 160.161 42.0802C165.028 44.9366 167.111 49.5714 166.391 55.1521C165.659 60.8193 162.233 64.4505 156.88 66.3116C152.602 67.3771 148.757 66.3818 145.023 64.1532C138.849 60.4681 132.567 56.9631 126.331 53.3828Z" fill="#109D58"/>
<path d="M46.675 49.7945C41.067 52.9807 35.4557 56.161 29.8536 59.3569C26.5763 61.2265 23.3355 63.1598 20.0413 64.9981C13.4042 68.7028 5.51877 66.5314 1.75559 60.0061C-1.83585 53.7795 0.228204 45.7067 6.62008 41.9754C22.2485 32.8534 37.9172 23.7977 53.6426 14.8434C58.4654 12.097 63.4691 12.4424 67.929 15.7255C72.6361 19.1908 74.1771 24.067 73.12 29.7836C72.4643 31.1666 72.0727 32.7883 71.0911 33.8779C69.4941 35.6505 67.6792 37.3477 65.6587 38.5941C59.4061 42.4496 53.0135 46.0782 46.675 49.7945Z" fill="#E94436"/>
<path d="M40.2449 53.3684C45.8086 56.6314 51.3685 59.9015 56.9375 63.1553C60.1946 65.0587 63.4894 66.899 66.7283 68.8316C73.2554 72.7282 75.3182 80.6422 71.5485 87.1635C67.9512 93.3876 59.9285 95.637 53.5009 91.9662C37.7866 82.9925 22.11 73.9518 6.49269 64.8102C1.70301 62.0065 -0.499605 57.5005 0.113822 51.9965C0.761076 46.1869 4.21331 42.4146 9.69253 40.4715C11.218 40.3486 12.8182 39.8763 14.2532 40.182C16.5866 40.679 18.9642 41.4017 21.0536 42.5284C27.519 46.0151 33.8575 49.7373 40.2449 53.3684Z" fill="#4385F3"/>
<path d="M225.092 82.3497C219.412 82.3497 214.182 80.9719 209.402 78.2163C204.622 75.4606 200.826 71.6646 198.014 66.8282C195.202 61.9918 193.796 56.6493 193.796 50.8006C193.796 44.952 195.202 39.6094 198.014 34.773C200.826 29.9367 204.622 26.1406 209.402 23.385C214.182 20.6294 219.412 19.2516 225.092 19.2516C229.535 19.2516 233.696 20.0389 237.577 21.6135C241.513 23.1882 244.747 25.4096 247.278 28.2777L242.132 33.4234C240.22 31.0614 237.773 29.2618 234.793 28.0246C231.812 26.7311 228.607 26.0844 225.176 26.0844C220.902 26.0844 216.909 27.1248 213.198 29.2056C209.542 31.2301 206.59 34.1263 204.34 37.8942C202.147 41.6059 201.051 45.908 201.051 50.8006C201.051 55.6933 202.147 60.0235 204.34 63.7914C206.59 67.5031 209.571 70.3993 213.282 72.4801C216.994 74.5046 220.959 75.5169 225.176 75.5169C229.225 75.5169 232.6 74.8983 235.299 73.661C238.055 72.3676 240.417 70.6805 242.385 68.5997C243.847 67.0251 245.028 65.1411 245.928 62.9479C246.828 60.6984 247.39 58.2239 247.615 55.5246H225.261V48.8605H254.279C254.56 50.4351 254.701 51.8973 254.701 53.247C254.701 56.9586 254.11 60.5859 252.929 64.1288C251.748 67.6156 249.864 70.6805 247.278 73.3236C241.71 79.341 234.315 82.3497 225.092 82.3497ZM265.37 20.6013H283.591C289.777 20.6013 295.176 21.8947 299.787 24.4816C304.398 27.0123 307.941 30.5553 310.416 35.1105C312.89 39.6657 314.128 44.8957 314.128 50.8006C314.128 56.7055 312.89 61.9356 310.416 66.4908C307.941 71.046 304.398 74.6171 299.787 77.204C295.176 79.7347 289.777 81 283.591 81H265.37V20.6013ZM283.591 74.1672C290.733 74.1672 296.385 72.1145 300.546 68.0092C304.764 63.9039 306.873 58.1677 306.873 50.8006C306.873 43.4336 304.764 37.6974 300.546 33.5921C296.385 29.4868 290.733 27.4341 283.591 27.4341H272.456V74.1672H283.591ZM353.026 82.3497C347.346 82.3497 342.116 80.9719 337.336 78.2163C332.556 75.4606 328.76 71.6646 325.948 66.8282C323.136 61.9918 321.73 56.6493 321.73 50.8006C321.73 44.952 323.136 39.6094 325.948 34.773C328.76 29.9367 332.556 26.1406 337.336 23.385C342.116 20.6294 347.346 19.2516 353.026 19.2516C357.469 19.2516 361.63 20.0389 365.511 21.6135C369.447 23.1882 372.681 25.4096 375.212 28.2777L370.066 33.4234C368.154 31.0614 365.708 29.2618 362.727 28.0246C359.746 26.7311 356.541 26.0844 353.11 26.0844C348.836 26.0844 344.844 27.1248 341.132 29.2056C337.476 31.2301 334.524 34.1263 332.275 37.8942C330.081 41.6059 328.985 45.908 328.985 50.8006C328.985 55.6933 330.081 60.0235 332.275 63.7914C334.524 67.5031 337.505 70.3993 341.216 72.4801C344.928 74.5046 348.893 75.5169 353.11 75.5169C357.159 75.5169 360.534 74.8983 363.233 73.661C365.989 72.3676 368.351 70.6805 370.319 68.5997C371.781 67.0251 372.962 65.1411 373.862 62.9479C374.762 60.6984 375.324 58.2239 375.549 55.5246H353.195V48.8605H382.213C382.494 50.4351 382.635 51.8973 382.635 53.247C382.635 56.9586 382.044 60.5859 380.863 64.1288C379.682 67.6156 377.799 70.6805 375.212 73.3236C369.644 79.341 362.249 82.3497 353.026 82.3497ZM439.269 82.3497C433.476 82.3497 428.218 80.9438 423.494 78.1319C418.77 75.32 415.059 71.524 412.359 66.7439C409.66 61.9075 408.31 56.5931 408.31 50.8006C408.31 45.0644 409.66 39.7782 412.359 34.9418C415.059 30.1054 418.77 26.2812 423.494 23.4694C428.218 20.6575 433.476 19.2516 439.269 19.2516C445.061 19.2516 450.319 20.6575 455.043 23.4694C459.767 26.2812 463.479 30.1054 466.178 34.9418C468.934 39.7782 470.312 45.0644 470.312 50.8006C470.312 56.5931 468.962 61.9075 466.262 66.7439C463.563 71.524 459.823 75.32 455.043 78.1319C450.319 80.9438 445.061 82.3497 439.269 82.3497ZM439.269 75.5169C443.599 75.5169 447.564 74.4765 451.163 72.3957C454.818 70.2587 457.686 67.3344 459.767 63.6227C461.904 59.8548 462.973 55.5808 462.973 50.8006C462.973 46.0205 461.904 41.7746 459.767 38.0629C457.686 34.295 454.818 31.3707 451.163 29.2899C447.564 27.1529 443.599 26.0844 439.269 26.0844C434.938 26.0844 430.974 27.1529 427.374 29.2899C423.775 31.3707 420.907 34.295 418.77 38.0629C416.633 41.8308 415.565 46.0767 415.565 50.8006C415.565 55.5246 416.633 59.7705 418.77 63.5384C420.907 67.3062 423.775 70.2587 427.374 72.3957C430.974 74.4765 434.938 75.5169 439.269 75.5169ZM494.454 82.3497C489.842 82.3497 485.99 81.2812 482.897 79.1442C479.804 76.9509 477.611 74.1672 476.317 70.793L482.728 67.9249C483.797 70.5118 485.371 72.5082 487.452 73.9141C489.589 75.32 491.923 76.023 494.454 76.023C497.153 76.023 499.459 75.4888 501.371 74.4203C503.283 73.2955 504.239 71.7209 504.239 69.6963C504.239 67.8967 503.48 66.4627 501.961 65.3942C500.443 64.2694 498.053 63.3134 494.791 62.5261L489.561 61.1764C486.131 60.3328 483.319 58.8988 481.126 56.8743C478.932 54.8497 477.836 52.2347 477.836 49.0292C477.836 46.5547 478.567 44.3896 480.029 42.5338C481.547 40.6217 483.544 39.1595 486.018 38.1473C488.493 37.135 491.164 36.6289 494.032 36.6289C497.8 36.6289 501.146 37.4443 504.07 39.0752C507.051 40.7061 509.16 42.9837 510.397 45.908L504.155 48.7761C502.243 44.952 498.84 43.0399 493.948 43.0399C491.586 43.0399 489.505 43.6023 487.705 44.727C485.962 45.7955 485.09 47.1733 485.09 48.8605C485.09 50.4351 485.709 51.7286 486.946 52.7408C488.183 53.6969 490.039 54.4842 492.514 55.1028L498.756 56.7055C502.974 57.774 506.151 59.3768 508.288 61.5138C510.425 63.5946 511.494 66.1534 511.494 69.1902C511.494 71.8333 510.734 74.1672 509.216 76.1917C507.698 78.16 505.645 79.6784 503.058 80.7469C500.471 81.8154 497.603 82.3497 494.454 82.3497ZM523.116 30.0491C521.71 30.0491 520.501 29.543 519.488 28.5307C518.476 27.5185 517.97 26.3094 517.97 24.9034C517.97 23.4975 518.476 22.3165 519.488 21.3605C520.501 20.3482 521.71 19.8421 523.116 19.8421C524.522 19.8421 525.731 20.3482 526.743 21.3605C527.755 22.3165 528.261 23.4975 528.261 24.9034C528.261 26.3094 527.755 27.5185 526.743 28.5307C525.787 29.543 524.578 30.0491 523.116 30.0491ZM519.573 37.9786H526.659V81H519.573V37.9786ZM542.145 30.0491C540.739 30.0491 539.53 29.543 538.518 28.5307C537.505 27.5185 536.999 26.3094 536.999 24.9034C536.999 23.4975 537.505 22.3165 538.518 21.3605C539.53 20.3482 540.739 19.8421 542.145 19.8421C543.551 19.8421 544.76 20.3482 545.772 21.3605C546.785 22.3165 547.291 23.4975 547.291 24.9034C547.291 26.3094 546.785 27.5185 545.772 28.5307C544.816 29.543 543.607 30.0491 542.145 30.0491ZM533.878 100.064C532.528 100.064 531.263 99.8676 530.082 99.4739V92.6411C530.532 92.9223 531.094 93.1472 531.769 93.3159C532.444 93.4847 533.063 93.569 533.625 93.569C535.368 93.569 536.634 93.0066 537.421 91.8819C538.208 90.8134 538.602 89.2106 538.602 87.0736V37.9786H545.688V87.0736C545.688 91.4039 544.648 94.6375 542.567 96.7745C540.486 98.9678 537.59 100.064 533.878 100.064ZM575.694 82.3497C571.588 82.3497 567.905 81.3655 564.643 79.3972C561.381 77.4289 558.822 74.7296 556.967 71.2991C555.167 67.8124 554.267 63.9039 554.267 59.5736C554.267 55.4121 555.111 51.588 556.798 48.1013C558.541 44.6146 560.988 41.8308 564.137 39.75C567.286 37.6693 570.942 36.6289 575.103 36.6289C579.321 36.6289 582.976 37.5849 586.069 39.497C589.162 41.3528 591.524 43.9397 593.155 47.2577C594.842 50.5757 595.686 54.3717 595.686 58.6457C595.686 59.4893 595.602 60.2204 595.433 60.839H561.437C561.606 64.1007 562.394 66.8564 563.799 69.1058C565.205 71.3553 566.977 73.0424 569.114 74.1672C571.307 75.2919 573.585 75.8543 575.947 75.8543C581.458 75.8543 585.704 73.2674 588.684 68.0936L594.758 71.046C592.902 74.5327 590.372 77.2883 587.166 79.3129C584.017 81.3374 580.193 82.3497 575.694 82.3497ZM588.094 54.9341C587.981 53.1345 587.475 51.3349 586.576 49.5353C585.676 47.7357 584.242 46.2173 582.273 44.9801C580.361 43.7429 577.943 43.1243 575.019 43.1243C571.645 43.1243 568.776 44.2209 566.414 46.4141C564.109 48.5512 562.59 51.3911 561.859 54.9341H588.094ZM604.077 20.6013H611.248V58.5614L631.493 37.9786H640.603V38.316L623.732 55.3558L641.025 80.6626V81H632.505L618.671 60.3328L611.248 67.7561V81H604.077V20.6013Z" fill="#666C74"/>
</svg>
