<svg width="79" height="20" viewBox="0 0 79 20" fill="none" xmlns="http://www.w3.org/2000/svg">
<mask id="path-1-inside-1_3446_89" fill="white">
<path fill-rule="evenodd" clip-rule="evenodd" d="M22.3239 16.8217L21.3101 19.4913H15.6851L23.63 0H29.3504L37.2953 19.4913H31.6703L30.6565 16.8217H22.3239ZM29.0733 12.6529L26.4902 5.85103L23.9071 12.6529H29.0733ZM0 4.60818H6.99156V19.4917H11.8539V4.60818H18.8454V0.000488281H0V4.60818ZM38.1133 0H51.143C52.2871 0 53.2404 0.182844 54.0667 0.585102C54.893 0.987361 55.5286 1.57246 55.9735 2.34041C56.4184 3.07179 56.6409 3.94945 56.6409 4.97338C56.6409 5.96074 56.3549 6.83839 55.8146 7.5332C55.2426 8.26458 54.4481 8.73998 53.4629 8.99596C54.893 9.0691 56.0053 9.5445 56.7998 10.4587C57.6261 11.3729 58.0392 12.6163 58.0392 14.1156C58.0392 15.2493 57.785 16.2 57.2765 17.0046C56.768 17.8091 56.0371 18.4307 55.0519 18.833C54.0985 19.2718 52.9862 19.4913 51.6832 19.4913H38.1133V0ZM51.2383 14.847C51.8421 14.847 52.3188 14.7007 52.6366 14.4082C52.9862 14.079 53.1451 13.6768 53.1451 13.1648C53.1451 12.6163 52.9862 12.214 52.6366 11.9215C52.3188 11.5924 51.8421 11.4461 51.2383 11.4461H42.9756V14.847H51.2383ZM50.0942 7.31379C50.6027 7.31379 51.0159 7.16751 51.3337 6.91153C51.6197 6.65555 51.7786 6.28986 51.7786 5.85103C51.7786 5.44877 51.6197 5.15622 51.3337 4.93681C51.0159 4.71739 50.6027 4.60769 50.0942 4.60769H42.9756V7.31379H50.0942ZM63.711 18.8298C65.2047 19.6343 66.9208 20 68.9229 20C70.8933 20 72.6411 19.6343 74.103 18.8298C75.5649 18.0618 76.709 16.9648 77.4717 15.502C78.2662 14.0393 78.6475 12.6894 78.6475 10.7147V0H73.7852V10.2393C73.7852 12.0312 73.3403 13.4208 72.4822 14.4447C71.6242 15.4321 70.4166 15.9441 68.9229 15.9441C67.3975 15.9441 66.2216 15.4321 65.3318 14.4447C64.4737 13.4208 64.0288 12.0312 64.0288 10.2393V0H59.1665V10.7147C59.1665 12.6894 59.5479 14.0393 60.3424 15.502C61.1369 16.9648 62.2491 18.0618 63.711 18.8298Z"/>
</mask>
<path fill-rule="evenodd" clip-rule="evenodd" d="M22.3239 16.8217L21.3101 19.4913H15.6851L23.63 0H29.3504L37.2953 19.4913H31.6703L30.6565 16.8217H22.3239ZM29.0733 12.6529L26.4902 5.85103L23.9071 12.6529H29.0733ZM0 4.60818H6.99156V19.4917H11.8539V4.60818H18.8454V0.000488281H0V4.60818ZM38.1133 0H51.143C52.2871 0 53.2404 0.182844 54.0667 0.585102C54.893 0.987361 55.5286 1.57246 55.9735 2.34041C56.4184 3.07179 56.6409 3.94945 56.6409 4.97338C56.6409 5.96074 56.3549 6.83839 55.8146 7.5332C55.2426 8.26458 54.4481 8.73998 53.4629 8.99596C54.893 9.0691 56.0053 9.5445 56.7998 10.4587C57.6261 11.3729 58.0392 12.6163 58.0392 14.1156C58.0392 15.2493 57.785 16.2 57.2765 17.0046C56.768 17.8091 56.0371 18.4307 55.0519 18.833C54.0985 19.2718 52.9862 19.4913 51.6832 19.4913H38.1133V0ZM51.2383 14.847C51.8421 14.847 52.3188 14.7007 52.6366 14.4082C52.9862 14.079 53.1451 13.6768 53.1451 13.1648C53.1451 12.6163 52.9862 12.214 52.6366 11.9215C52.3188 11.5924 51.8421 11.4461 51.2383 11.4461H42.9756V14.847H51.2383ZM50.0942 7.31379C50.6027 7.31379 51.0159 7.16751 51.3337 6.91153C51.6197 6.65555 51.7786 6.28986 51.7786 5.85103C51.7786 5.44877 51.6197 5.15622 51.3337 4.93681C51.0159 4.71739 50.6027 4.60769 50.0942 4.60769H42.9756V7.31379H50.0942ZM63.711 18.8298C65.2047 19.6343 66.9208 20 68.9229 20C70.8933 20 72.6411 19.6343 74.103 18.8298C75.5649 18.0618 76.709 16.9648 77.4717 15.502C78.2662 14.0393 78.6475 12.6894 78.6475 10.7147V0H73.7852V10.2393C73.7852 12.0312 73.3403 13.4208 72.4822 14.4447C71.6242 15.4321 70.4166 15.9441 68.9229 15.9441C67.3975 15.9441 66.2216 15.4321 65.3318 14.4447C64.4737 13.4208 64.0288 12.0312 64.0288 10.2393V0H59.1665V10.7147C59.1665 12.6894 59.5479 14.0393 60.3424 15.502C61.1369 16.9648 62.2491 18.0618 63.711 18.8298Z" fill="black"/>
<path d="M21.3101 19.4913V19.6913H21.4481L21.4971 19.5623L21.3101 19.4913ZM22.3239 16.8217V16.6217H22.1859L22.1369 16.7507L22.3239 16.8217ZM15.6851 19.4913L15.4999 19.4158L15.3876 19.6913H15.6851V19.4913ZM23.63 0V-0.2H23.4956L23.4448 -0.0754926L23.63 0ZM29.3504 0L29.5356 -0.0754926L29.4848 -0.2H29.3504V0ZM37.2953 19.4913V19.6913H37.5928L37.4806 19.4158L37.2953 19.4913ZM31.6703 19.4913L31.4833 19.5623L31.5323 19.6913H31.6703V19.4913ZM30.6565 16.8217L30.8435 16.7507L30.7945 16.6217H30.6565V16.8217ZM26.4902 5.85103L26.6772 5.78003L26.4902 5.2877L26.3032 5.78003L26.4902 5.85103ZM29.0733 12.6529V12.8529H29.3632L29.2603 12.5819L29.0733 12.6529ZM23.9071 12.6529L23.7201 12.5819L23.6172 12.8529H23.9071V12.6529ZM6.99156 4.60818H7.19156V4.40818H6.99156V4.60818ZM0 4.60818H-0.2V4.80818H0V4.60818ZM6.99156 19.4917H6.79156V19.6917H6.99156V19.4917ZM11.8539 19.4917V19.6917H12.0539V19.4917H11.8539ZM11.8539 4.60818V4.40818H11.6539V4.60818H11.8539ZM18.8454 4.60818V4.80818H19.0454V4.60818H18.8454ZM18.8454 0.000488281H19.0454V-0.199512H18.8454V0.000488281ZM0 0.000488281V-0.199512H-0.2V0.000488281H0ZM38.1133 0V-0.2H37.9133V0H38.1133ZM54.0667 0.585102L54.1543 0.40528L54.1543 0.40528L54.0667 0.585102ZM55.9735 2.34041L55.8004 2.4407L55.8026 2.44436L55.9735 2.34041ZM55.8146 7.5332L55.9722 7.65642L55.9725 7.65597L55.8146 7.5332ZM53.4629 8.99596L53.4126 8.80239L53.4527 9.1957L53.4629 8.99596ZM56.7998 10.4587L56.6488 10.5899L56.6514 10.5928L56.7998 10.4587ZM57.2765 17.0046L57.1074 16.8977L57.1074 16.8977L57.2765 17.0046ZM55.0519 18.833L54.9762 18.6477L54.9683 18.6513L55.0519 18.833ZM38.1133 19.4913H37.9133V19.6913H38.1133V19.4913ZM52.6366 14.4082L52.7721 14.5553L52.7737 14.5538L52.6366 14.4082ZM52.6366 11.9215L52.4928 12.0604L52.5001 12.068L52.5083 12.0749L52.6366 11.9215ZM42.9756 11.4461V11.2461H42.7756V11.4461H42.9756ZM42.9756 14.847H42.7756V15.047H42.9756V14.847ZM51.3337 6.91153L51.4593 7.0675L51.467 7.06056L51.3337 6.91153ZM51.3337 4.93681L51.4555 4.77792L51.4473 4.77222L51.3337 4.93681ZM42.9756 4.60769V4.40769H42.7756V4.60769H42.9756ZM42.9756 7.31379H42.7756V7.51379H42.9756V7.31379ZM63.711 18.8298L63.8059 18.6537L63.804 18.6527L63.711 18.8298ZM74.103 18.8298L74.01 18.6527L74.0066 18.6546L74.103 18.8298ZM77.4717 15.502L77.2959 15.4065L77.2943 15.4095L77.4717 15.502ZM78.6475 0H78.8475V-0.2H78.6475V0ZM73.7852 0V-0.2H73.5852V0H73.7852ZM72.4822 14.4447L72.6332 14.5759L72.6355 14.5732L72.4822 14.4447ZM65.3318 14.4447L65.1784 14.5733L65.1832 14.5786L65.3318 14.4447ZM64.0288 0H64.2288V-0.2H64.0288V0ZM59.1665 0V-0.2H58.9665V0H59.1665ZM60.3424 15.502L60.5181 15.4066L60.5181 15.4066L60.3424 15.502ZM21.4971 19.5623L22.5109 16.8927L22.1369 16.7507L21.1231 19.4202L21.4971 19.5623ZM15.6851 19.6913H21.3101V19.2913H15.6851V19.6913ZM23.4448 -0.0754926L15.4999 19.4158L15.8703 19.5667L23.8152 0.0754926L23.4448 -0.0754926ZM29.3504 -0.2H23.63V0.2H29.3504V-0.2ZM37.4806 19.4158L29.5356 -0.0754926L29.1652 0.0754926L37.1101 19.5667L37.4806 19.4158ZM31.6703 19.6913H37.2953V19.2913H31.6703V19.6913ZM30.4695 16.8927L31.4833 19.5623L31.8573 19.4202L30.8435 16.7507L30.4695 16.8927ZM22.3239 17.0217H30.6565V16.6217H22.3239V17.0217ZM26.3032 5.92204L28.8863 12.7239L29.2603 12.5819L26.6772 5.78003L26.3032 5.92204ZM24.0941 12.7239L26.6772 5.92204L26.3032 5.78003L23.7201 12.5819L24.0941 12.7239ZM29.0733 12.4529H23.9071V12.8529H29.0733V12.4529ZM6.99156 4.40818H0V4.80818H6.99156V4.40818ZM7.19156 19.4917V4.60818H6.79156V19.4917H7.19156ZM11.8539 19.2917H6.99156V19.6917H11.8539V19.2917ZM11.6539 4.60818V19.4917H12.0539V4.60818H11.6539ZM18.8454 4.40818H11.8539V4.80818H18.8454V4.40818ZM18.6454 0.000488281V4.60818H19.0454V0.000488281H18.6454ZM0 0.200488H18.8454V-0.199512H0V0.200488ZM0.2 4.60818V0.000488281H-0.2V4.60818H0.2ZM51.143 -0.2H38.1133V0.2H51.143V-0.2ZM54.1543 0.40528C53.2936 -0.0137184 52.3083 -0.2 51.143 -0.2V0.2C52.2658 0.2 53.1873 0.379406 53.9792 0.764925L54.1543 0.40528ZM56.1466 2.24015C55.681 1.43649 55.015 0.824305 54.1543 0.40528L53.9792 0.764925C54.771 1.15042 55.3762 1.70844 55.8005 2.44067L56.1466 2.24015ZM56.8409 4.97338C56.8409 3.92002 56.6118 3.00483 56.1444 2.23647L55.8026 2.44436C56.2251 3.13876 56.4409 3.97887 56.4409 4.97338H56.8409ZM55.9725 7.65597C56.543 6.92226 56.8409 6.00014 56.8409 4.97338H56.4409C56.4409 5.92133 56.1667 6.75453 55.6567 7.41044L55.9725 7.65597ZM53.5132 9.18953C54.5328 8.92461 55.3683 8.42844 55.9722 7.65642L55.6571 7.40999C55.1168 8.10072 54.3634 8.55535 53.4126 8.80239L53.5132 9.18953ZM56.9507 10.3275C56.1129 9.36347 54.9446 8.87148 53.4731 8.79622L53.4527 9.1957C54.8414 9.26672 55.8976 9.72552 56.6488 10.5899L56.9507 10.3275ZM58.2392 14.1156C58.2392 12.5794 57.8153 11.2841 56.9482 10.3246L56.6514 10.5928C57.4368 11.4618 57.8392 12.6531 57.8392 14.1156H58.2392ZM57.4455 17.1114C57.9775 16.2698 58.2392 15.2805 58.2392 14.1156H57.8392C57.8392 15.218 57.5924 16.1303 57.1074 16.8977L57.4455 17.1114ZM55.1275 19.0182C56.1499 18.6007 56.9141 17.9524 57.4455 17.1114L57.1074 16.8977C56.622 17.6658 55.9243 18.2608 54.9763 18.6478L55.1275 19.0182ZM51.6832 19.6913C53.0087 19.6913 54.1507 19.468 55.1355 19.0147L54.9683 18.6513C54.0463 19.0757 52.9637 19.2913 51.6832 19.2913V19.6913ZM38.1133 19.6913H51.6832V19.2913H38.1133V19.6913ZM37.9133 0V19.4913H38.3133V0H37.9133ZM52.5012 14.261C52.2336 14.5073 51.8136 14.647 51.2383 14.647V15.047C51.8707 15.047 52.404 14.8941 52.7721 14.5553L52.5012 14.261ZM52.9451 13.1648C52.9451 13.6284 52.8043 13.9756 52.4995 14.2625L52.7737 14.5538C53.1681 14.1825 53.3451 13.7252 53.3451 13.1648H52.9451ZM52.5083 12.0749C52.8014 12.3202 52.9451 12.6594 52.9451 13.1648H53.3451C53.3451 12.5731 53.171 12.1079 52.765 11.7681L52.5083 12.0749ZM51.2383 11.6461C51.8137 11.6461 52.2274 11.7856 52.4928 12.0604L52.7805 11.7826C52.4102 11.3991 51.8706 11.2461 51.2383 11.2461V11.6461ZM42.9756 11.6461H51.2383V11.2461H42.9756V11.6461ZM43.1756 14.847V11.4461H42.7756V14.847H43.1756ZM51.2383 14.647H42.9756V15.047H51.2383V14.647ZM51.2082 6.75578C50.9299 6.97992 50.5625 7.11379 50.0942 7.11379V7.51379C50.643 7.51379 51.1018 7.35511 51.4591 7.06729L51.2082 6.75578ZM51.5786 5.85103C51.5786 6.23891 51.4397 6.54825 51.2003 6.7625L51.467 7.06056C51.7997 6.76285 51.9786 6.34081 51.9786 5.85103H51.5786ZM51.2119 5.09549C51.45 5.2781 51.5786 5.51265 51.5786 5.85103H51.9786C51.9786 5.3849 51.7894 5.03435 51.4554 4.77812L51.2119 5.09549ZM50.0942 4.80769C50.5748 4.80769 50.9448 4.91134 51.22 5.10139L51.4473 4.77222C51.087 4.52345 50.6306 4.40769 50.0942 4.40769V4.80769ZM42.9756 4.80769H50.0942V4.40769H42.9756V4.80769ZM43.1756 7.31379V4.60769H42.7756V7.31379H43.1756ZM50.0942 7.11379H42.9756V7.51379H50.0942V7.11379ZM68.9229 19.8C66.9455 19.8 65.2638 19.439 63.8059 18.6537L63.6162 19.0059C65.1456 19.8296 66.8961 20.2 68.9229 20.2V19.8ZM74.0066 18.6546C72.5818 19.4387 70.8693 19.8 68.9229 19.8V20.2C70.9172 20.2 72.7005 19.8299 74.1994 19.005L74.0066 18.6546ZM77.2943 15.4095C76.5519 16.8334 75.4387 17.9022 74.01 18.6527L74.196 19.0068C75.6911 18.2215 76.866 17.0961 77.649 15.5945L77.2943 15.4095ZM78.4475 10.7147C78.4475 12.6562 78.0745 13.9732 77.2959 15.4066L77.6474 15.5975C78.4579 14.1053 78.8475 12.7227 78.8475 10.7147H78.4475ZM78.4475 0V10.7147H78.8475V0H78.4475ZM73.7852 0.2H78.6475V-0.2H73.7852V0.2ZM73.9852 10.2393V0H73.5852V10.2393H73.9852ZM72.6355 14.5732C73.5316 13.5039 73.9852 12.0643 73.9852 10.2393H73.5852C73.5852 11.9981 73.149 13.3377 72.329 14.3163L72.6355 14.5732ZM68.9229 16.1441C70.4659 16.1441 71.7319 15.6131 72.6332 14.5759L72.3313 14.3135C71.5165 15.2511 70.3672 15.7441 68.9229 15.7441V16.1441ZM65.1832 14.5786C66.1147 15.6122 67.3466 16.1441 68.9229 16.1441V15.7441C67.4483 15.7441 66.3286 15.252 65.4804 14.3108L65.1832 14.5786ZM63.8288 10.2393C63.8288 12.0643 64.2824 13.5039 65.1785 14.5732L65.4851 14.3163C64.665 13.3377 64.2288 11.9981 64.2288 10.2393H63.8288ZM63.8288 0V10.2393H64.2288V0H63.8288ZM59.1665 0.2H64.0288V-0.2H59.1665V0.2ZM59.3665 10.7147V0H58.9665V10.7147H59.3665ZM60.5181 15.4066C59.7396 13.9732 59.3665 12.6562 59.3665 10.7147H58.9665C58.9665 12.7227 59.3562 14.1053 60.1666 15.5975L60.5181 15.4066ZM63.804 18.6527C62.3774 17.9033 61.2938 16.8347 60.5181 15.4066L60.1666 15.5975C60.9799 17.0949 62.1209 18.2204 63.618 19.0068L63.804 18.6527Z" fill="#BFCBEA" mask="url(#path-1-inside-1_3446_89)"/>
</svg>
