<?xml version="1.0" encoding="utf-8"?>
<!-- Generator: Adobe Illustrator 26.3.1, SVG Export Plug-In . SVG Version: 6.00 Build 0)  -->
<svg version="1.1" id="Layer_1" xmlns="http://www.w3.org/2000/svg" xmlns:xlink="http://www.w3.org/1999/xlink" x="0px" y="0px"
	 viewBox="0 0 650 252.1" style="enable-background:new 0 0 650 252.1;" xml:space="preserve">
<g>
	<path d="M68.9,104.6V90.9H14.2c0,13.7-13.7,13.7-13.7,13.7v27.3c0,7.5,6.1,13.7,13.7,13.7v-41H68.9z"/>
	<rect x="232.9" y="131.9" width="13.7" height="13.7"/>
	<path d="M178.3,131.9h41v-13.7h-27.3v-13.7h41V90.9h-54.7v27.3h-13.7v27.3c0,0,13.7,0,13.7,13.7h54.7v-13.7h-54.7V131.9z"/>
	<path d="M123.6,131.9h13.7v-13.7h-27.3v-13.7h41V90.9H96.3v27.3H82.6v13.7H68.9v13.7H14.2v13.7h54.7c0,0,0-13.7,13.7-13.7v-13.7
		h27.3v27.3h54.7v-13.7h-41V131.9z"/>
	<rect x="287.6" y="104.5" width="13.7" height="13.7"/>
	<path d="M315,159.2v-27.3h-27.3v-13.7H274l0,0V90.9c-7.5,0-13.7,6.1-13.7,13.7v41h-13.7v13.7h13.7c0,0,0-13.7,13.7-13.7v-13.7h13.7
		v13.7h13.7v13.7H315z"/>
	<rect x="301.3" y="90.9" width="13.7" height="13.7"/>
	<rect x="34.8" y="118.2" width="34.2" height="13.7"/>
	<polygon points="28,69.5 42.5,69.5 42.5,12.9 70.5,12.9 70.5,0 0,0 0,12.9 28,12.9 	"/>
	<polygon points="92.9,41 137.8,41 137.8,69.5 152.4,69.5 152.4,0 137.8,0 137.8,28.5 92.9,28.5 92.9,0 78.5,0 78.5,69.5 92.9,69.5 
			"/>
	<polygon points="224.8,57 176,57 176,41 224.8,41 224.8,28.5 176,28.5 176,12.5 224.8,12.5 224.8,0 161.6,0 161.6,69.5 224.8,69.5 
			"/>
	<path d="M79.3,211H36.7v12.5h28c-0.5,10.1-4.6,15.9-23,15.9h-3.6c-19.8,0-23.3-6.8-23.3-21v-3.9c0-14.3,3.5-21.1,23.3-21.1h3.4
		c12.9,0,19.1,2.5,21.4,8.6l0.2,0.4h15.6l-0.2-0.8c-3.5-14.3-14.9-21-35.8-21h-5.8C11,180.7,0,190.4,0,213.1v6.6
		c0,22.7,11,32.4,36.9,32.4h5.8c25.3,0,36.6-9.8,36.6-31.6V211z"/>
	<path d="M111.5,181.7L78,251.2h16l8.3-17.2h39.2l8.3,17.2H166l-33.6-69.5H111.5z M108.2,221.4l13.7-28.4l13.5,28.4H108.2z"/>
	<polygon points="150,194.6 178,194.6 178,251.2 192.5,251.2 192.5,194.6 220.5,194.6 220.5,181.7 150,181.7 	"/>
	<polygon points="286.5,210.1 241.6,210.1 241.6,181.7 227.1,181.7 227.1,251.2 241.6,251.2 241.6,222.6 286.5,222.6 286.5,251.2 
		301,251.2 301,181.7 286.5,181.7 	"/>
	<polygon points="310.3,251.2 373.5,251.2 373.5,238.7 324.7,238.7 324.7,222.6 373.5,222.6 373.5,210.1 324.7,210.1 324.7,194.2 
		373.5,194.2 373.5,181.7 310.3,181.7 	"/>
	<path d="M427.5,181.7h-46.3v69.5h14.5v-25.8h27.8c12.8,0,14.6,2.1,14.6,10.1v15.8h14.5v-17.4c0-10.8-3.4-14.1-10.6-15.7
		c7.5-1.6,10.6-6.3,10.6-15.8v-2.5C452.6,186.8,445.6,181.7,427.5,181.7z M438,203.9c0,7-2.9,9-12.9,9h-29.6v-18.7h27.6
		c11.8,0,14.8,1.9,14.8,9.1V203.9z"/>
	<rect x="460.7" y="181.7" width="14.5" height="69.5"/>
	<polygon points="547.5,236.8 505.7,181.7 484.4,181.7 484.4,251.2 498.8,251.2 498.8,196.3 540.6,251.2 562,251.2 562,181.7 
		547.5,181.7 	"/>
	<path d="M607.5,211L607.5,211l0,12.5h27.9c-0.5,10.1-4.6,15.9-23,15.9h-3.6c-19.8,0-23.3-6.8-23.3-21v-3.9
		c0-14.3,3.5-21.1,23.3-21.1h3.4c12.8,0,19.1,2.5,21.4,8.6l0.2,0.4h15.6l-0.2-0.8c-3.6-14.5-14.6-21-35.8-21h-5.8
		c-25.9,0-36.9,9.7-36.9,32.4v6.6c0,22.7,11,32.4,36.9,32.4h5.8c25.3,0,36.6-9.8,36.6-31.6V211L607.5,211z"/>
</g>
</svg>
