<?xml version="1.0" encoding="UTF-8"?>
<svg id="Layer_2" data-name="Layer 2" xmlns="http://www.w3.org/2000/svg" viewBox="0 0 477.67 179.13">
  <defs>
    <style>
      .cls-1 {
        stroke-width: 0px;
      }
    </style>
  </defs>
  <g id="Layer_1-2" data-name="Layer 1">
    <g>
      <path class="cls-1" d="m90.16,60.87h26.43v-29.85c0-8.34-3.86-12.55-11.76-12.55h-2.98c-7.81,0-11.76,4.21-11.76,12.55v29.85h.09Zm0,19.1l.09,32.81c0,8.34,3.95,12.46,11.76,12.46h3.42c7.81,0,11.76-4.12,11.76-12.46v-16.14h18v15.33c0,21.07-10.01,31.83-29.85,31.83h-3.95c-19.84,0-29.85-10.67-29.85-29.32V34.25C71.55,10.67,81.56,0,101.4,0h3.95c19.84,0,29.85,10.67,29.85,31.74l-.09,48.14h-44.95v.09Z"/>
      <path class="cls-1" d="m165.85,117.72c5.09,4.66,10.97,7.26,17.12,7.26,6.85,0,10.8-3.41,10.8-11.48V30.13c0-8.07-3.95-11.48-10.8-11.48-6.14,0-12.03,2.6-17.12,7.26v91.8ZM147.23,1.62h18.61v9.14C170.23,5.83,177.78.09,188.58.09c15.89,0,23.7,11.21,23.7,27.88v88.04c0,16.67-7.81,27.88-23.7,27.88-10.8,0-18.35-5.47-22.74-10.13v45.36h-18.61V1.62Z"/>
      <path class="cls-1" d="m268.03,118.52v-46.35l-16.86,6.81c-6.85,2.87-9.04,6.54-9.04,14.61v21.34c0,6.81,3.16,10.13,9.04,10.13s10.8-2.06,16.86-6.54Zm-44.51-25.28c0-17.48,5.36-24.48,19.58-29.68l24.93-9.14v-23.4c0-8.34-3.95-12.73-11.76-12.73h-2.98c-7.81,0-11.76,4.39-11.76,12.73v19.9h-18.09v-19.1C223.43,10.76,233.44.09,253.28.09h3.51c19.84,0,29.85,10.67,29.85,31.74v110.45h-18.61v-8.88c-5.09,5.2-12.03,10.4-22.74,10.4-14.92,0-21.77-9.14-21.77-24.74v-25.82Z"/>
      <path class="cls-1" d="m361.79,142.28h-18.61V28.96c0-6.99-3.16-10.13-8.78-10.13-5.09,0-10.54,2.06-17.12,6.99v116.46h-18.61V1.61h18.61v9.14c5.44-5.47,12.47-10.76,22.74-10.76,9.57,0,15.89,4.21,19.31,11.48,6.67-6.01,14.49-11.48,25.2-11.48,14.4,0,21.77,9.41,21.77,24.74v117.45h-18.61V28.96c0-6.99-3.16-10.13-8.78-10.13-5.09,0-10.54,2.06-17.12,6.99v116.46Z"/>
      <path class="cls-1" d="m0,62.94v19.01l47.76,47.78v-26.45l-31.25-31.11,31.25-31.74V14.52L0,62.94Z"/>
      <path class="cls-1" d="m429.91,40.43l31.25,31.74-31.25,31.2v26.36l47.76-47.78v-19.01l-47.76-48.41v25.91Z"/>
    </g>
  </g>
</svg>