<?xml version="1.0" encoding="utf-8"?>
<!-- Generator: Adobe Illustrator 25.2.0, SVG Export Plug-In . SVG Version: 6.00 Build 0)  -->
<svg version="1.1" id="Layer_1" xmlns="http://www.w3.org/2000/svg" xmlns:xlink="http://www.w3.org/1999/xlink" x="0px" y="0px"
	 viewBox="0 0 180 60" style="enable-background:new 0 0 180 60;" xml:space="preserve">
<style type="text/css">
	.st0{fill:#CC202F;}
	.st1{fill:#7C8188;}
</style>
<g id="Layer_1_1_">
</g>
<g id="Layer_11">
	<g>
		<g>
			<g>
				<polygon class="st0" points="75.8,3.6 72.7,3.6 66.7,14.3 63,14.5 63,3.6 60.3,3.6 60.3,27.1 63,27.1 63,16.9 66.7,16.8 
					72.9,27 72.9,27.1 76.2,27.1 69.1,15.4 				"/>
				<polygon class="st0" points="79,27.1 93.4,27.1 93.4,24.6 81.8,24.6 81.8,16.4 91.3,16.4 91.3,14 81.8,14 81.8,6.1 93.4,6.1 
					93.4,3.6 79,3.6 				"/>
				<polygon class="st0" points="97.3,27.1 111.6,27.1 111.6,24.6 100,24.6 100,16.4 109.6,16.4 109.6,14 100,14 100,6.1 111.6,6.1 
					111.6,3.6 97.3,3.6 				"/>
				<path class="st0" d="M124.1,3.6h-8.8V27h2.7v-7.8h6.1c5,0,7.5-2.7,7.5-8c0-2.5-0.6-4.4-1.8-5.7C128.6,4.2,126.7,3.6,124.1,3.6z
					 M128.8,11.2c0,3.7-1.6,5.6-4.7,5.6H118V6.1h6.1c1.6,0,2.8,0.4,3.6,1.2C128.4,8.1,128.8,9.4,128.8,11.2z"/>
				<polygon class="st0" points="135.1,27.1 149.4,27.1 149.4,24.6 137.9,24.6 137.9,16.4 147.4,16.4 147.4,14 137.9,14 137.9,6.1 
					149.4,6.1 149.4,3.6 135.1,3.6 				"/>
				<path class="st0" d="M165.4,17.6c2.8-0.9,4.2-3.2,4.2-6.8c0-2.5-0.6-4.2-1.9-5.4c-1.3-1.1-3.2-1.8-5.6-1.8h-8.7v23.4h2.7v-8.9
					h6.4l4.2,8.9V27h3L165.4,17.6z M166.7,10.9c0,3.2-1.6,4.8-4.7,4.8h-5.9V6.1h5.9C165.2,6.1,166.7,7.7,166.7,10.9z"/>
			</g>
			<g>
				<path class="st1" d="M70.3,43.2c-0.7-0.6-2-1-3.7-1.3c-1.7-0.3-2.8-0.6-3.3-0.8c-0.5-0.3-0.7-0.7-0.7-1.3c0-1.4,1-2.1,3.1-2.1
					c1.3,0,3,0.1,5.1,0.5h0.1l0.1-2l-0.9-0.1c-1.8-0.3-3.3-0.4-4.5-0.4c-1.6,0-2.8,0.4-3.8,1.1c-1.1,0.7-1.6,1.8-1.6,3.2
					c0,1.5,0.4,2.5,1.1,3c0.7,0.6,2,0.9,3.7,1.2c1.7,0.3,2.8,0.6,3.3,0.8c0.5,0.3,0.7,0.8,0.7,1.6c0,0.8-0.3,1.4-0.8,1.8
					c-0.6,0.4-1.4,0.6-2.5,0.6c-1.1,0-2.8-0.1-5-0.5h-0.1l-0.1,2.1l1,0.1c1.6,0.3,3.1,0.4,4.3,0.4c1.9,0,3.3-0.4,4.3-1.1
					c1-0.7,1.5-1.8,1.5-3.4C71.5,44.8,71.1,43.7,70.3,43.2z"/>
				<path class="st1" d="M80.3,35.3c-2.3,0-3.9,0.6-4.9,1.8c-1,1.2-1.5,3.2-1.5,5.9s0.5,4.7,1.3,5.9c0.9,1.2,2.6,1.8,5,1.8
					c2.4,0,4.1-0.6,5-1.8c0.9-1.2,1.3-3.2,1.3-5.9s-0.5-4.7-1.4-5.9C84.2,36,82.5,35.3,80.3,35.3z M77.2,38.6
					c0.6-0.8,1.6-1.2,3.1-1.2c1.5,0,2.5,0.4,3.1,1.2c0.6,0.8,0.8,2.3,0.8,4.4c0,2.1-0.3,3.6-0.8,4.4c-0.5,0.8-1.6,1.2-3.2,1.2
					s-2.7-0.4-3.2-1.3c-0.5-0.8-0.8-2.3-0.8-4.4C76.3,40.9,76.6,39.4,77.2,38.6z"/>
				<polygon class="st1" points="90,50.5 92.4,50.5 92.4,39.9 92.4,30.2 90,30.2 90,39.9 				"/>
				<path class="st1" d="M105.7,47.6l-0.5,0.2c-0.4,0.1-0.8,0.4-1.5,0.6c-0.6,0.2-1.3,0.3-2,0.3c-1.3,0-2.1-0.4-2.5-1.1
					s-0.6-2.1-0.6-4.2v-7.8h-2.4v7.8c0,2.8,0.4,4.7,1,5.8c0.7,1.1,2,1.6,4.1,1.6c1.4,0,2.8-0.4,4.2-1.3v1h2.4V35.6h-2.4L105.7,47.6
					L105.7,47.6z"/>
				<path class="st1" d="M119.8,48.5l-2.7,0.2c-0.8,0-1.4-0.3-1.7-0.7c-0.2-0.5-0.4-1.6-0.4-3.3v-6.9h4.7v-2.1H115v-4.1h-2.3v4.1
					h-2.1v2.1h2.1v7.6c0,2.1,0.3,3.5,0.9,4.3c0.6,0.8,1.7,1.1,3.2,1.1c0.7,0,1.7-0.1,3-0.4h0.1L119.8,48.5L119.8,48.5z"/>
				<polygon class="st1" points="122.4,33.1 124.8,33.1 124.8,31.7 124.8,30.6 122.4,30.6 122.4,31.7 				"/>
				<polygon class="st1" points="122.4,50.5 124.8,50.5 124.8,43.1 124.8,35.7 122.4,35.7 122.4,43.1 				"/>
				<path class="st1" d="M134.1,35.3c-2.3,0-3.9,0.6-4.9,1.8c-1,1.2-1.5,3.2-1.5,5.9s0.5,4.7,1.3,5.9c0.9,1.2,2.6,1.8,5,1.8
					s4.1-0.6,5-1.8c0.9-1.2,1.3-3.2,1.3-5.9s-0.5-4.7-1.4-5.9C138.1,36,136.4,35.3,134.1,35.3z M131,38.6c0.6-0.8,1.6-1.2,3.1-1.2
					c1.5,0,2.5,0.4,3.1,1.2c0.6,0.8,0.8,2.3,0.8,4.4c0,2.1-0.3,3.6-0.8,4.4c-0.5,0.8-1.6,1.2-3.2,1.2c-1.6,0-2.7-0.4-3.2-1.3
					c-0.5-0.8-0.8-2.3-0.8-4.4C130.2,40.9,130.5,39.4,131,38.6z"/>
				<path class="st1" d="M150.6,35.3c-1.4,0-2.9,0.4-4.4,1.3v-1h-2.3v14.9h2.4v-12l0.5-0.2c0.4-0.1,0.9-0.4,1.6-0.6
					c0.7-0.2,1.3-0.3,2-0.3c1.3,0,2.1,0.4,2.5,1.1c0.4,0.7,0.6,2.1,0.6,4.2v7.8h2.3v-7.8c0-2.7-0.4-4.7-1.1-5.7
					C153.9,35.9,152.5,35.3,150.6,35.3z"/>
				<path class="st1" d="M168.7,43.2c-0.7-0.6-2-1-3.7-1.3c-1.7-0.3-2.8-0.6-3.3-0.8c-0.5-0.3-0.7-0.7-0.7-1.3c0-1.4,1-2.1,3.1-2.1
					c1.3,0,3,0.1,5.1,0.5h0.1l0.1-2l-0.9-0.1c-1.8-0.3-3.3-0.4-4.5-0.4c-1.6,0-2.8,0.4-3.8,1.1c-1.1,0.7-1.6,1.8-1.6,3.2
					c0,1.5,0.4,2.5,1.1,3c0.7,0.6,2,0.9,3.7,1.2c1.7,0.3,2.8,0.6,3.3,0.8c0.5,0.3,0.7,0.8,0.7,1.6c0,0.8-0.3,1.4-0.8,1.8
					c-0.6,0.4-1.4,0.6-2.5,0.6s-2.8-0.1-5-0.5H159l-0.1,2.1l1,0.1c1.6,0.3,3.1,0.4,4.3,0.4c1.9,0,3.3-0.4,4.3-1.1
					c1-0.7,1.5-1.8,1.5-3.4C169.8,44.8,169.5,43.7,168.7,43.2z"/>
			</g>
		</g>
		<path class="st0" d="M29.1,15c-0.7-0.1-1.5-0.1-2.3-0.1c-3.6,0-6.6,0.8-6.6,1.8v0.6c-1.6-0.5-2.7-1.1-2.7-1.8
			c0-1.5,4.1-2.6,9.2-2.6c2.3,0,4.5,0.3,6.1,0.7c6.3-2.5,18.2-7.7,22.8-12c0.1-0.1,0.1-0.1,0,0c-1.6,1.2-3.8,2.4-6.3,3.7
			c-2-2.3-5-3.7-8.2-3.7H12.4c-6.1,0-11.1,5-11.1,11.1v10c6.8-1.3,13.1-3,18.9-4.7V18v0.1c0-0.9,3-1.6,6.6-1.6c0.2,0,0.4,0,0.5,0
			c-0.3,0.6-0.5,1.3-0.6,2c-3.5,0-6.5,0.8-6.5,1.8v1.3c0-0.9,2.9-1.6,6.4-1.6c0,0.8,0.2,1.5,0.4,2.1c-0.1,0-0.1,0-0.3,0
			C23,22,20,22.8,20,23.7v0.7c0.4-0.1,0.8-0.2,1.2-0.3c0.3-0.1,0.6-0.1,1-0.2c1.3-0.2,2.8-0.4,4.4-0.4c0.7,0,1.3,0,2,0.1
			c-0.7-0.8-1.2-2.4-1.2-4.1C27.5,17.5,28.2,15.8,29.1,15z M25.5,8.7c0.1-0.4,0.4-0.8,1.1-1c0.7,0.1,1.1,0.6,1.1,1
			c1.8,0.4,3.4,1.7,4.2,3.5c-0.4-0.1-0.8-0.1-1.3-0.2c-0.6-0.9-1.4-1.8-2.4-2.1c0.6,0.7,1,1.3,1.3,2c-0.4-0.1-0.8-0.1-1.3-0.1
			c-0.4-0.8-0.8-1.4-1.6-1.8c-0.7,0.4-1.2,1-1.6,1.8c-0.4,0-0.9,0.1-1.3,0.1c0.3-0.7,0.6-1.3,1.3-2c-1,0.4-1.8,1.2-2.4,2.1
			c-0.4,0.1-0.8,0.1-1.1,0.2C22.2,10.4,23.7,9.1,25.5,8.7z M52.3,27.1v14.4c0,6.1-5,11.1-11.1,11.1h-3.7l1.1,8l-2.3-8l-2.1-22
			c-1.3-1.4-3.1-2.3-5.2-2.3h-0.1c-0.7,0-1.5,0.1-2.3,0.3c-3.5,0.9-6.6,3.7-8.2,7.1l-1.6,17l-2.3,8l1.1-8h-3.4
			c-6.1,0-11.1-5-11.1-11.1V25.3c4.7-0.5,11.4-0.8,18.5-0.8c-1.8,0.6-3,1.4-3,2.3l-0.1,1.7c0,0,0,0.3,0.1,0.1c1-1.5,5-2.6,9.9-2.6
			c4.8,0,8.9,1.1,9.9,2.5c0.1,0.2,0.1-0.1,0.1-0.1l-0.1-1.6c0-0.8-0.8-1.4-2-2c4.3,0.2,19.3,1.6,21.4,2.3H52.3z M53.2,15.7
			l-20.4,3.9c0.3,0.2,0.4,0.4,0.4,0.6v1.3c0-0.2-0.2-0.5-0.6-0.7c0.1-0.4,0.1-0.8,0.1-1.2l-2.5,0.5l0,0l0,0c-0.2,0-0.4-0.4-0.4-0.8
			c0-0.4,0.1-0.7,0.4-0.8l0,0l0,0l0,0l0,0L53.2,15.7z M28,36.7v3.5c0,0.8-2.7,0.8-2.7,0v-3.5c0-0.8,0.6-1.3,1.3-1.3S28,36,28,36.7z
			 M32.5,17.2c-0.2-0.6-0.4-1.2-0.7-1.6c0.9,0.4,1.5,0.7,1.5,1.1V18C33.2,17.7,33,17.4,32.5,17.2z M33.2,23.6v0.7
			c-0.4-0.1-0.8-0.2-1.2-0.3c-0.2-0.1-0.5-0.1-0.7-0.1c0.3-0.3,0.6-0.6,0.8-1.1C32.8,23,33.2,23.3,33.2,23.6z"/>
	</g>
</g>
</svg>
