<svg width="268" height="62" viewBox="0 0 268 62" fill="none" xmlns="http://www.w3.org/2000/svg">
<g clip-path="url(#clip0_12_242)">
<path d="M70.2212 39.6542C69.8346 39.6542 69.4481 39.7833 69.4481 40.3C69.4481 40.6875 69.577 41.075 70.0923 41.075C70.2212 41.075 70.6077 40.9458 70.7366 40.6875C72.5404 40.0417 73.0558 39.9125 74.8596 39.3958C77.05 38.8792 78.2096 38.8792 78.8539 38.8792C79.8846 38.75 84.1366 38.3625 83.4923 35.5208C83.4923 35.3917 83.3635 35.0042 83.1058 35.0042C82.3327 35.0042 81.5596 37.2 80.0135 37.2C79.8846 37.2 79.8846 37.2 79.6269 37.2C79.4981 36.5542 79.4981 37.2 79.4981 34.3583C79.4981 23.1208 78.3385 2.97083 79.6269 2.325C79.7558 2.19583 80.1423 1.9375 81.8173 1.55C81.9462 1.55 82.2039 1.1625 82.2039 0.775C82.2039 0.3875 82.075 0 81.5596 0C81.3019 0 81.1731 0 81.1731 0.129167C79.8846 1.1625 78.4673 1.29167 77.3077 1.29167C71.6385 1.29167 71.5096 0 66.227 0C61.5885 0 58.7539 3.61667 58.7539 5.94167C58.7539 6.5875 59.1404 7.23333 59.7846 7.23333C59.9135 7.23333 60.3 7.10417 60.3 6.84583C60.3 6.71667 60.3 6.32917 60.3 6.2C60.3 2.84167 63.1346 1.03333 66.0981 1.03333C67 1.1625 67.6443 1.29167 67.9019 1.29167C65.4539 5.29583 63.0058 9.42917 61.3308 23.7667C58.4962 23.8958 56.6923 24.2833 56.1769 24.2833C55.4039 24.2833 55.1462 24.6708 55.1462 24.9292C55.1462 25.1875 55.4039 25.8333 55.9193 25.8333C56.0481 25.8333 56.3058 25.8333 56.3058 25.8333C57.5943 25.4458 59.3981 25.1875 61.2019 25.0583C60.3 33.5833 59.2693 42.4958 57.0789 44.8208C56.95 44.95 56.95 45.2083 56.95 45.2083C56.95 45.5958 57.3366 45.8542 57.5943 45.8542H57.7231C61.3308 44.175 63.3923 33.8417 64.4231 24.6708C67.2577 24.5417 70.2212 24.5417 72.7981 24.5417H75.1173C74.4731 32.4208 73.5712 34.6167 73.4423 35.9083C73.4423 37.2 72.4116 39.525 70.2212 39.6542ZM64.4231 23.6375C65.4539 16.6625 66.3558 12.4 68.675 7.10417C69.7058 4.77917 71.2519 2.97083 72.4116 2.97083C72.7981 2.97083 73.5712 2.84167 74.0866 4.52083C74.7308 6.2 75.8904 14.4667 75.1173 23.25C71.1231 23.25 64.4231 23.6375 64.4231 23.6375Z" fill="#3B2517"/>
<path d="M111.452 8.26667C111.452 4.00417 109.133 0.645834 103.85 0.645834C101.273 0.645834 97.7942 1.29167 93.2846 1.29167C90.8365 1.29167 88.5173 1.1625 86.9711 0.516667C86.8423 0.516667 86.4558 0.387501 86.1981 0.387501C85.8115 0.387501 85.6827 0.775001 85.6827 0.904167C85.6827 1.29167 86.0692 1.55 86.4558 1.67917C88.1308 2.325 89.8058 3.4875 89.8058 5.29583C89.8058 6.45833 89.1615 26.9958 89.1615 30.8708C89.1615 34.2292 86.3269 35.0042 86.0692 36.0375C86.0692 36.425 86.1981 36.8125 86.5846 36.8125C86.5846 36.8125 86.7135 36.8125 86.7135 36.6833C88.5173 35.5208 90.8365 35.5208 93.2846 35.1333C94.5731 35.0042 97.4077 35.5208 97.5365 35.5208C98.1808 35.5208 98.6961 35.3917 98.6961 34.7458C98.6961 34.1 97.6654 34.1 97.4077 34.1C97.2788 34.1 94.3154 32.55 94.3154 31.775C94.3154 26.0917 94.3154 31 94.3154 25.7042C104.623 25.575 111.452 15.5 111.452 8.26667ZM94.4442 24.2833V20.6667C94.4442 11.7542 94.8308 3.61667 96.6346 2.58333C96.7634 2.58333 98.4385 2.06667 100.371 2.06667C104.623 2.06667 106.427 4.2625 106.427 7.75C106.427 14.2083 102.948 23.5083 94.4442 24.2833Z" fill="#3B2517"/>
<path d="M154.873 38.4917C154.873 36.1667 154.1 35.1333 153.198 35.1333C152.554 35.1333 152.038 35.7792 152.038 36.8125C152.038 37.8458 152.425 39.0083 152.425 40.1708C152.425 43.5292 148.688 44.8208 145.854 44.8208C137.479 44.8208 136.319 25.7042 123.95 25.1875C131.037 22.6042 137.865 14.9833 137.865 7.62083C137.865 4.00417 136.062 0.645834 130.135 0.645834C127.687 0.645834 120.858 1.42083 116.606 1.42083C115.317 1.42083 114.158 1.29167 113.127 1.29167C112.354 1.29167 111.967 1.42083 111.967 1.80833C111.967 2.97083 113.127 2.97083 113.513 2.97083C115.446 3.35833 115.833 4.77917 115.833 6.45833C115.833 9.42917 115.317 23.3792 115.317 34.3583C115.317 35.65 114.029 35.1333 112.869 35.3917C112.74 35.3917 111.71 34.7458 111.581 36.1667C111.194 38.75 117.637 39.2667 122.275 42.8833C122.275 42.8833 123.435 42.8833 123.435 42.2375C123.435 41.7208 124.079 40.9458 122.662 40.3C122.662 40.3 120.858 39.2667 120.858 38.1042C120.858 36.8125 120.342 30.8708 120.342 21.4417C120.342 12.4 120.729 3.35833 122.533 2.45417C122.662 2.45417 124.337 1.9375 126.14 1.9375C129.104 1.9375 132.712 2.97083 132.712 7.75C132.712 15.2417 128.588 22.0875 121.115 24.6708C120.987 24.6708 120.729 25.0583 120.729 25.3167C120.729 25.8333 121.115 26.35 121.76 26.35C128.331 26.35 133.742 46.8875 144.308 46.8875C149.719 47.1458 154.873 43.7875 154.873 38.4917Z" fill="#3B2517"/>
<path d="M140.185 16.1458C140.185 22.0875 141.215 33.0667 148.044 33.0667C154.744 33.0667 156.162 19.5042 156.162 14.3375C156.162 10.85 155.388 0.645834 148.946 0.645834C140.829 0.645834 140.185 13.6917 140.185 16.1458ZM151.394 15.5C151.394 19.7625 151.394 32.1625 148.044 32.1625C144.952 32.1625 144.565 21.3125 144.565 16.6625C144.565 11.7542 145.21 1.29167 148.688 1.29167C151.394 1.55 151.394 9.94583 151.394 15.5Z" fill="#3B2517"/>
<path d="M188.631 2.45417C189.146 2.325 189.919 2.325 190.435 1.9375C190.563 1.80833 190.563 1.55 190.563 1.42083C190.563 1.03333 190.435 0.775 190.177 0.775H187.342C184.25 0.775 183.863 0.645833 183.606 0.645833C183.09 0.645833 182.962 1.1625 182.962 1.67917C182.962 2.325 183.348 2.325 183.735 2.325C184.894 2.45417 185.667 2.19583 185.667 4.77917C185.667 11.7542 184.894 21.3125 184.894 32.4208C178.581 22.3458 172.396 4.00417 162.088 0.516667C160.8 0 159.512 0 158.094 0C157.708 0 157.579 0.129167 157.579 0.3875C157.579 0.645833 157.579 0.775 157.708 0.775C158.738 1.42083 159.64 1.42083 160.8 3.22917C161.444 4.2625 161.573 10.4625 161.573 17.5667C161.573 27.5125 161.187 31.9042 161.058 32.9375C160.929 35.7792 159.254 36.2958 158.481 36.6833C158.352 36.8125 158.094 37.0708 158.094 37.2C158.094 37.5875 158.094 37.8458 158.61 37.8458C158.738 37.8458 159.769 36.8125 162.346 36.8125C163.377 36.8125 164.923 36.9417 164.923 36.9417C165.31 36.9417 165.567 36.5542 165.567 36.2958C165.567 36.1667 165.052 35.9083 164.923 35.7792C164.279 35.65 163.119 35.3917 163.119 35.0042C163.119 35.0042 164.665 9.04167 163.635 7.23333C169.948 17.9542 177.163 37.7167 187.213 37.7167C187.987 37.7167 188.244 37.3292 188.244 36.9417C188.244 36.5542 187.6 35.9083 187.213 35.65C186.698 35.0042 186.183 34.1 186.183 32.55C186.183 20.6667 186.827 16.1458 186.827 5.16667C187.858 4.13333 187.987 2.84167 188.631 2.45417Z" fill="#3B2517"/>
<path d="M206.025 1.55C209.117 1.55 208.602 6.975 210.277 6.975C211.308 6.975 211.308 5.0375 211.308 4.39167C211.308 0.387501 206.669 0.387501 205.51 0.387501C194.429 0.387501 191.852 15.6292 191.852 24.6708C191.852 31.775 193.012 41.85 201.387 41.85C209.246 41.85 210.921 35.5208 210.921 33.0667C210.921 32.4208 210.792 32.0333 210.277 32.0333C210.148 32.0333 209.762 32.0333 209.504 33.325C208.731 37.0708 205.767 40.3 202.804 40.3C199.196 40.3 197.392 33.5833 197.392 24.1542C197.392 14.5958 197.908 1.55 206.025 1.55Z" fill="#3B2517"/>
<path d="M265.165 47.7917C264.65 47.7917 264.135 48.4375 264.135 49.6C264.135 50.6333 263.104 60.3208 250.219 60.3208C240.427 60.3208 226.125 55.5417 211.179 50.8917C216.59 48.05 217.492 39.1375 218.265 28.4167C220.198 28.4167 222.517 28.5458 225.223 28.5458C227.156 28.5458 229.217 28.5458 231.279 28.4167C231.923 41.9792 235.015 55.1542 247.9 55.1542C257.177 55.1542 261.429 49.2125 261.429 43.1417C261.429 36.6833 256.79 30.0958 248.287 30.0958C245.838 30.0958 242.488 31.1292 242.488 32.55C242.488 33.0667 242.875 33.325 243.133 33.325C243.262 33.325 243.519 33.1958 243.648 32.9375C244.679 31.775 246.483 31.1292 248.544 31.1292C255.76 31.1292 260.14 37.2 260.14 43.0125C260.14 48.3083 256.662 53.2167 248.415 53.2167C235.531 53.2167 235.531 33.0667 235.531 24.8C235.531 21.9583 235.144 4.52083 235.531 3.35833C235.66 3.22917 236.046 2.97083 237.721 2.58333C238.108 2.58333 238.237 2.06667 238.237 1.80833C238.237 1.55 237.85 1.03333 237.592 1.03333C237.463 1.03333 237.206 1.03333 237.077 1.1625C235.788 2.325 234.242 2.325 232.825 2.325C227.929 2.325 227.156 0.645834 222.904 0.645834C219.94 0.645834 216.204 2.58333 215.173 5.425C215.044 5.94167 215.302 6.07083 215.688 6.07083C215.817 6.07083 216.204 5.94167 216.333 5.68333C217.363 2.84167 220.585 1.67917 223.033 1.67917C219.425 5.94167 218.523 8.65417 217.879 11.1083C216.848 14.5958 215.431 20.925 215.044 27.5125C214.271 27.5125 213.756 27.5125 213.24 27.5125C212.725 27.5125 211.694 27.5125 211.565 28.1583C211.565 28.675 211.694 28.9333 212.21 28.9333C212.983 28.9333 213.24 28.5458 215.044 28.4167C214.4 39.0083 213.369 48.05 209.375 50.375C196.233 46.3708 182.446 42.625 171.237 42.625C164.021 42.625 150.106 45.0792 150.106 53.8625C150.106 56.0583 151.265 57.6083 152.296 57.6083C152.812 57.6083 153.456 56.9625 153.456 55.8C153.456 55.1542 155.002 44.4333 169.819 44.4333C183.219 43.9167 221.1 61.7417 246.869 61.7417C252.667 61.7417 257.692 60.7083 261.815 58.7708C265.938 56.575 267.227 53.8625 267.227 51.6667C267.485 49.4708 266.196 47.7917 265.165 47.7917ZM223.677 7.23333C224.965 5.29583 226.769 3.22917 228.315 3.22917C229.604 3.22917 230.506 5.0375 230.763 7.87917C231.279 11.4958 231.279 13.0458 231.279 21.5708C231.279 23.25 231.279 25.0583 231.279 26.8667C228.315 26.9958 224.063 27.3833 218.523 27.3833C219.038 19.375 220.713 11.625 223.677 7.23333Z" fill="#3B2517"/>
<path d="M179.096 54.25C179.096 54.8958 179.483 55.9292 180.256 55.9292C180.771 55.9292 181.415 55.4125 182.446 54.25C184.379 51.7958 187.858 50.5042 191.465 50.5042C189.275 49.9875 187.342 49.7292 185.796 49.7292C180.256 49.7292 179.096 52.5708 179.096 54.25Z" fill="#3B2517"/>
<path d="M96.5058 42.4958C83.75 42.4958 68.4173 47.1458 53.9865 51.5375C49.4769 43.1417 54.1154 21.8292 42.6481 19.5042C43.1635 18.2125 51.6673 3.1 55.7904 1.9375C56.4346 1.80833 56.95 1.42083 56.95 1.1625C56.95 0.904166 56.5635 0.516666 56.3058 0.516666C56.0481 0.516666 53.3423 1.1625 51.6673 1.1625C50.6365 1.1625 49.7346 0.645833 48.1885 0.645833C47.1577 0.645833 46.2558 0.775 45.3538 1.29167C45.225 1.42083 44.9673 1.80833 44.9673 2.06667C44.9673 2.19583 44.9673 2.7125 45.3538 2.7125C45.7404 2.7125 46.6423 2.19583 47.5442 2.19583C48.1885 2.19583 49.2192 2.325 49.2192 3.35833C49.2192 3.875 49.0904 4.39167 48.575 4.90833C47.5442 6.5875 36.3346 26.2208 35.6904 26.35C36.0769 23.8958 36.3346 6.2 36.85 4.00417C37.2365 2.7125 38.6538 2.7125 39.1692 2.45417C39.8135 2.325 40.2 1.9375 40.2 1.67917C40.2 1.42083 39.8135 0.904166 39.4269 0.904166C39.0404 0.904166 38.2673 1.29167 36.0769 1.29167C33.8865 1.29167 30.9231 1.1625 29.1192 0.775H28.9904C28.8615 0.775 28.3462 0.904166 28.3462 1.42083C28.3462 1.9375 28.7327 2.06667 29.1192 2.19583C30.2788 2.58333 31.0519 2.19583 31.0519 2.84167C31.0519 13.3042 31.0519 27.5125 30.4077 40.4292C29.1192 47.4042 25.8981 53.475 18.8115 53.475C10.6942 53.475 7.08654 48.5667 7.08654 43.2708C7.08654 37.4583 11.3385 31.3875 18.6827 31.3875C20.6154 31.3875 22.6769 32.0333 23.5788 33.1958C23.7077 33.325 23.9654 33.5833 24.0942 33.5833C24.4808 33.5833 24.7385 33.4542 24.7385 32.8083C24.7385 31.2583 21.3885 30.3542 18.9404 30.3542C10.5654 30.3542 5.79808 36.9417 5.79808 43.4C5.79808 49.4708 10.05 55.4125 19.3269 55.4125C31.825 55.4125 35.175 43.0125 35.9481 29.9667C37.1077 27.7708 39.5558 23.8958 40.2 22.7333C40.7154 21.9583 40.9731 21.5708 41.4885 21.5708C44.5808 21.5708 44.5808 43.2708 51.4096 52.4417C38.2673 56.575 26.0269 60.3208 17.3942 60.3208C4.50961 60.3208 3.47885 50.5042 3.47885 49.6C3.47885 48.4375 2.96346 47.7917 2.44808 47.7917C1.41731 47.7917 0.128845 49.6 0.128845 51.7958C0.128845 53.9917 1.41731 56.7042 5.54038 58.9C9.66346 61.0958 14.8173 61.8708 20.4865 61.8708C46.5135 62 84.3942 44.175 97.9231 44.175C112.74 44.175 114.287 54.8958 114.287 55.5417C114.287 56.8333 114.931 57.35 115.446 57.35C116.219 57.35 117.637 55.6708 117.637 53.6042C117.637 45.0792 103.721 42.4958 96.5058 42.4958Z" fill="#3B2517"/>
<path d="M81.9461 49.7292C80.4 49.7292 78.5961 49.8583 76.2769 50.5042C79.7558 50.5042 83.3635 51.6667 85.2962 54.25C86.3269 55.4125 86.9712 55.9292 87.4865 55.9292C88.2596 55.9292 88.6462 54.8958 88.6462 54.25C88.775 52.5708 87.6154 49.7292 81.9461 49.7292Z" fill="#3B2517"/>
</g>
<defs>
<clipPath id="clip0_12_242">
<rect width="268" height="62" fill="white"/>
</clipPath>
</defs>
</svg>
