<?xml version="1.0" encoding="UTF-8"?>
<svg id="Layer_2" data-name="Layer 2" xmlns="http://www.w3.org/2000/svg" viewBox="0 0 644.71 178.76">
  <defs>
    <style>
      .cls-1 {
        font-family: Oxanium-ExtraLight, Oxanium;
        font-size: 163.62px;
        font-weight: 200;
      }

      .cls-1, .cls-2 {
        fill: #21a254;
      }

      .cls-3 {
        letter-spacing: 0em;
      }

      .cls-4 {
        letter-spacing: 0em;
      }

      .cls-5 {
        letter-spacing: .01em;
      }

      .cls-6 {
        letter-spacing: .01em;
      }

      .cls-7 {
        letter-spacing: .02em;
      }

      .cls-2 {
        stroke-width: 0px;
      }

      .cls-8 {
        letter-spacing: 0em;
      }
    </style>
  </defs>
  <g id="Layer_1-2" data-name="Layer 1">
    <g>
      <g>
        <path class="cls-2" d="m5.34,107.37c.42.44,1.52,1.11,1.85,2.04,1.36,3.82,2.51,7.71,3.67,11.6.47,1.57.08,3.01-1.62,3.5-1.7.49-2.89-.24-3.45-2.04-1.11-3.61-2.35-7.19-3.46-10.8-.76-2.47.26-4.24,3-4.29Z"/>
        <path class="cls-2" d="m29.92,31.66c-.61-.49-1.72-.94-1.9-1.63-.23-.88-.06-2.36.54-2.89,2.69-2.36,5.58-4.49,8.43-6.67.76-.58,1.55-1.43,2.4-1.52,1.01-.1,2.36.19,3.08.84,1.04.95.78,2.39-.34,3.27-3.39,2.7-6.85,5.32-10.31,7.93-.41.31-1.01.37-1.88.66Z"/>
        <path class="cls-2" d="m145.92,36.3c-.97-.51-1.72-.74-2.26-1.2-3.07-2.66-6.11-5.37-9.13-8.09-1.26-1.13-1.49-2.57-.42-3.86,1.1-1.32,2.49-1.29,3.8-.13,3.1,2.74,6.27,5.4,9.25,8.26.63.61.94,2,.75,2.88-.18.8-1.25,1.4-1.99,2.14Z"/>
        <path class="cls-2" d="m133.15,157.3c.54-.96.79-1.81,1.35-2.32,2.96-2.69,5.97-5.33,9.02-7.93,1.58-1.35,2.89-1.28,3.98,0,1.22,1.43.74,2.77-.42,3.83-3.05,2.79-6.15,5.54-9.36,8.15-.63.51-1.94.62-2.74.34-.72-.25-1.17-1.28-1.83-2.07Z"/>
        <path class="cls-2" d="m113.83,15.53c-4.8-1.35-9.06-2.47-13.27-3.78-1.46-.45-1.9-1.81-1.48-3.24.45-1.51,1.72-2.05,3.12-1.69,4.07,1.03,8.13,2.15,12.16,3.35,1.53.45,2.34,1.8,1.77,3.25-.37.92-1.6,1.5-2.31,2.12Z"/>
        <path class="cls-2" d="m151.08,43.56c-.03-2.28,2.05-3.63,3.59-2.69.67.41,1.27,1.07,1.69,1.74,1.93,3.1,3.81,6.24,5.65,9.39,1.18,2.02.89,3.56-.8,4.39-1.92.94-2.93-.27-3.8-1.75-1.72-2.91-3.49-5.79-5.19-8.71-.51-.88-.88-1.84-1.14-2.39Z"/>
        <path class="cls-2" d="m5.23,90.85c0,2.15.01,4.29,0,6.44-.01,1.65-.85,2.67-2.5,2.69-1.75.02-2.64-1.05-2.65-2.77-.02-4.15-.02-8.31,0-12.46,0-1.64.9-2.65,2.52-2.69,1.76-.04,2.62,1.03,2.63,2.77.01,2.01,0,4.02,0,6.02Z"/>
        <path class="cls-2" d="m114.03,166.47c.69.71,1.96,1.43,2.02,2.24.07.98-.66,2.68-1.42,2.94-4.1,1.4-8.31,2.52-12.52,3.57-1.36.34-2.6-.28-3.08-1.79-.45-1.41.11-2.69,1.37-3.09,4.34-1.37,8.75-2.5,13.64-3.87Z"/>
        <path class="cls-2" d="m168.75,95.82c-2.42-.04-4.8-2.45-4.76-4.85.04-2.42,2.45-4.8,4.85-4.76,2.42.04,4.8,2.45,4.76,4.85-.04,2.42-2.45,4.8-4.85,4.76Z"/>
        <path class="cls-2" d="m130,18.01c-.03,2.7-2.1,4.71-4.76,4.64-2.66-.07-4.62-2.17-4.55-4.87.07-2.6,2.02-4.47,4.68-4.46,2.79,0,4.67,1.91,4.63,4.7Z"/>
        <path class="cls-2" d="m125.37,168.71c-2.74,0-4.7-1.94-4.69-4.66,0-2.66,2.09-4.71,4.75-4.68,2.58.03,4.53,2.01,4.57,4.63.04,2.8-1.83,4.7-4.62,4.71Z"/>
        <path class="cls-2" d="m172.44,103.78c-.02,2.76-1.97,4.63-4.75,4.58-2.6-.05-4.56-2.02-4.57-4.61-.01-2.68,2.01-4.7,4.7-4.7,2.71,0,4.64,1.98,4.62,4.73Z"/>
        <path class="cls-2" d="m0,72.09c-.01-2.8,1.87-4.69,4.66-4.67,2.71.02,4.74,2.06,4.69,4.72-.04,2.55-2.08,4.57-4.63,4.59C1.98,76.76.01,74.82,0,72.09Z"/>
        <path class="cls-2" d="m63.64,6.17c2.65.03,4.84,2.23,4.73,4.76-.1,2.41-2.37,4.61-4.77,4.63-2.48.02-4.85-2.33-4.84-4.78.02-2.59,2.2-4.65,4.88-4.62Z"/>
        <path class="cls-2" d="m169.54,116.26c-.05,2.68-2.14,4.65-4.82,4.55-2.6-.1-4.61-2.3-4.51-4.93.1-2.62,2.22-4.48,4.99-4.39,2.6.09,4.39,2.05,4.34,4.77Z"/>
        <path class="cls-2" d="m14.21,128.9c2.59.04,4.66,2.06,4.68,4.57.03,2.48-2.27,4.79-4.77,4.8-2.54,0-4.77-2.22-4.75-4.78.01-2.65,2.1-4.63,4.84-4.59Z"/>
        <path class="cls-2" d="m26.06,38.17c-.03,2.75-1.98,4.59-4.78,4.54-2.58-.05-4.57-2.07-4.55-4.62.01-2.59,2.18-4.74,4.75-4.73,2.64.02,4.62,2.09,4.59,4.81Z"/>
        <path class="cls-2" d="m88.77,178.76c-2.67-.01-4.72-2.08-4.67-4.72.05-2.56,2.31-4.76,4.82-4.68,2.64.08,4.56,2.17,4.51,4.91-.05,2.63-1.99,4.49-4.65,4.48Z"/>
        <path class="cls-2" d="m40.3,165.47c-2.71-.05-4.6-2.05-4.52-4.82.07-2.58,2.11-4.6,4.63-4.59,2.51.01,4.72,2.28,4.7,4.81-.01,2.59-2.16,4.64-4.81,4.59Z"/>
        <path class="cls-2" d="m51.56,19.76c-2.61-.01-4.57-1.97-4.6-4.58-.03-2.7,1.98-4.74,4.67-4.73,2.46,0,4.65,2.14,4.7,4.58.05,2.5-2.21,4.74-4.77,4.73Z"/>
        <path class="cls-2" d="m51.53,171.57c-2.68-.03-4.64-2.1-4.56-4.83.07-2.6,2.07-4.51,4.69-4.48,2.47.03,4.66,2.19,4.68,4.62.02,2.51-2.25,4.72-4.8,4.69Z"/>
      </g>
      <text class="cls-1" transform="translate(204.49 138.26)"><tspan class="cls-8" x="0" y="0">S</tspan><tspan class="cls-5" x="95.44" y="0">c</tspan><tspan class="cls-3" x="178.33" y="0">i</tspan><tspan class="cls-4" x="212" y="0">P</tspan><tspan class="cls-6" x="315.16" y="0">l</tspan><tspan class="cls-7" x="354.97" y="0">y</tspan></text>
    </g>
  </g>
</svg>