<?xml version="1.0" encoding="UTF-8"?>
<svg id="Layer_2" data-name="Layer 2" xmlns="http://www.w3.org/2000/svg" viewBox="0 0 265.03 221.3">
  <defs>
    <style>
      .cls-1 {
        fill: rgba(234, 153, 154, 0);
      }

      .cls-1, .cls-2, .cls-3 {
        stroke-width: 0px;
      }

      .cls-2 {
        fill: #cb2026;
        fill-rule: evenodd;
      }

      .cls-3 {
        fill: #ea999a;
      }
    </style>
  </defs>
  <g id="Layer_1-2" data-name="Layer 1">
    <g>
      <g id="g6">
        <g id="g5">
          <rect id="rect3" class="cls-1" x="72.06" width="120.91" height="120.86"/>
          <g id="g4">
            <g id="g3">
              <path id="path3" class="cls-2" d="m175.27,17.64C164.65,6.98,150.43.69,135.4,0v29.62c-.08,8.85,2.19,17.57,6.56,25.27,4.47,7.66,10.9,14,18.62,18.38l25.68,14.77c12.03-23.38,7.59-51.86-10.99-70.47v.08Zm-27.07,101.15c14.52-3.87,27.07-13.03,35.19-25.68l-25.68-14.77c-15.54-9.27-34.91-9.27-50.45,0l-25.6,14.77c2.36,3.65,5.11,7.04,8.2,10.09,15.29,15.26,37.55,21.2,58.41,15.59h-.08ZM74.12,44.79c-3.89,14.52-2.23,29.96,4.68,43.32l25.68-14.77c7.72-4.37,14.15-10.71,18.62-18.38,4.33-7.74,6.54-16.48,6.4-25.35V0c-26.23,1.32-48.6,19.42-55.37,44.79Z"/>
            </g>
          </g>
        </g>
      </g>
      <g id="g10">
        <g id="g9">
          <g id="g8">
            <g id="g7">
              <path id="path6" class="cls-3" d="m49.33,159.03h14.51v60.58h-14.51v-30.23c0-4.84-1.69-8.95-5.08-12.33h0c-3.39-3.39-7.5-5.08-12.33-5.08h0c-2.34,0-4.57.44-6.71,1.33-2.14.89-4.01,2.14-5.62,3.75h0c-3.39,3.39-5.08,7.5-5.08,12.33h0c0,4.76,1.69,8.83,5.08,12.21h0c1.61,1.69,3.49,2.96,5.62,3.81,2.14.85,4.37,1.27,6.71,1.27h0c2.42,0,4.59-.4,6.53-1.21h0l5.2,12.94c-3.71,1.85-8.02,2.78-12.94,2.78h0c-4.43,0-8.52-.83-12.27-2.48-3.75-1.65-6.99-3.93-9.73-6.83-2.74-2.9-4.88-6.29-6.41-10.16-1.53-3.87-2.3-7.98-2.3-12.33h0c0-4.43.77-8.58,2.3-12.45,1.53-3.87,3.67-7.25,6.41-10.16s5.98-5.18,9.73-6.83c3.75-1.65,7.84-2.48,12.27-2.48h0c3.95,0,7.46.6,10.52,1.81,3.06,1.21,5.76,2.74,8.1,4.59h0v-4.84Zm37.48,4.72h0c2.26-1.85,4.82-3.39,7.68-4.59,2.86-1.21,6.11-1.81,9.73-1.81h0v14.51c-4.84,0-8.95,1.69-12.33,5.08h0c-3.39,3.55-5.08,7.66-5.08,12.33h0v30.35h-14.51v-60.58h14.51v4.72Zm38.57,55.86h-14.51v-60.45h14.51v60.45Zm-14.51-70.13v-14.51h14.51v14.51h-14.51Zm37.48,70.13h-14.51v-84.64h14.51v84.64Zm50.06-60.45h14.51v60.45h-14.51v-4.59c-2.18,1.85-4.63,3.37-7.38,4.53-2.74,1.17-5.8,1.75-9.19,1.75h0c-3.95,0-7.54-.75-10.76-2.24-3.22-1.49-5.98-3.53-8.28-6.11-2.3-2.58-4.07-5.6-5.32-9.07-1.25-3.47-1.87-7.17-1.87-11.12h0v-33.61h14.51v33.61c0,3.79,1.41,7.09,4.23,9.91h0c2.74,2.74,6.05,4.11,9.91,4.11h0c3.95,0,7.29-1.37,10.04-4.11h0c2.74-2.74,4.11-6.05,4.11-9.91h0v-33.61Zm45.95,22.97h0c.97.24,2.58.81,4.84,1.69,2.26.89,4.57,2.12,6.95,3.69,2.38,1.57,4.45,3.53,6.23,5.86,1.77,2.34,2.66,5.12,2.66,8.34h0c0,2.82-.46,5.4-1.39,7.74-.93,2.34-2.28,4.39-4.05,6.17-1.77,1.77-3.95,3.14-6.53,4.11-2.58.97-5.48,1.45-8.71,1.45h0c-4.92,0-9.49-.89-13.72-2.66-4.23-1.77-7.64-3.95-10.22-6.53h0l10.04-10.04c2.1,2.5,4.33,4.11,6.71,4.84,2.38.73,4.37,1.09,5.98,1.09h0c2.5,0,4.35-.48,5.56-1.45,1.21-.97,1.81-2.14,1.81-3.51h0c0-.97-.4-1.81-1.21-2.54-.81-.73-1.75-1.33-2.84-1.81-1.09-.48-2.2-.87-3.32-1.15s-2.06-.54-2.78-.79h0c-.97-.32-2.6-.89-4.9-1.69-2.3-.81-4.63-1.97-7.01-3.51-2.38-1.53-4.45-3.47-6.23-5.8-1.77-2.34-2.66-5.16-2.66-8.46h0c0-3.39.58-6.31,1.75-8.77,1.17-2.46,2.72-4.49,4.65-6.11,1.93-1.61,4.15-2.8,6.65-3.57,2.5-.77,5.08-1.15,7.74-1.15h0c4.11,0,7.6.48,10.46,1.45,2.86.97,5.22,2.02,7.07,3.14h0c2.1,1.37,3.87,2.9,5.32,4.59h0l-10.16,10.16c-1.61-2.1-3.39-3.63-5.32-4.59-1.93-.97-3.99-1.45-6.17-1.45h0c-1.69,0-3.37.4-5.02,1.21-1.65.81-2.48,2.1-2.48,3.87h0c0,.97.36,1.79,1.09,2.48s1.61,1.25,2.66,1.69c1.05.44,2.16.83,3.32,1.15s2.24.6,3.2.85h0Z"/>
            </g>
          </g>
        </g>
      </g>
    </g>
  </g>
</svg>