<svg id="Layer_1" data-name="Layer 1" xmlns="http://www.w3.org/2000/svg" xmlns:xlink="http://www.w3.org/1999/xlink" viewBox="0 0 753.88 249.34"><defs><style>.cls-1{fill:url(#linear-gradient);}.cls-2{fill:url(#linear-gradient-2);}.cls-3{fill:url(#linear-gradient-3);}</style><linearGradient id="linear-gradient" x1="450.55" y1="121.47" x2="530.22" y2="147.35" gradientUnits="userSpaceOnUse"><stop offset="0" stop-color="#ed2c3e"/><stop offset="0.14" stop-color="#e82b3c"/><stop offset="0.31" stop-color="#d82837"/><stop offset="0.5" stop-color="#bf222e"/><stop offset="0.69" stop-color="#9d1b21"/><stop offset="0.83" stop-color="#801517"/></linearGradient><linearGradient id="linear-gradient-2" x1="506.3" y1="125.94" x2="506.3" y2="214.04" gradientUnits="userSpaceOnUse"><stop offset="0" stop-color="#ed2c3e"/><stop offset="0.1" stop-color="#df2939"/><stop offset="0.3" stop-color="#ba212c"/><stop offset="0.55" stop-color="#801517"/></linearGradient><linearGradient id="linear-gradient-3" x1="483.69" y1="43.96" x2="483.69" y2="145.03" gradientUnits="userSpaceOnUse"><stop offset="0.36" stop-color="#ed2c3e"/><stop offset="0.42" stop-color="#e12a3a"/><stop offset="0.69" stop-color="#af1f28"/><stop offset="0.89" stop-color="#90181d"/><stop offset="1" stop-color="#841619"/></linearGradient></defs><title>FF - SECONDARY BG</title><path class="cls-1" d="M508.42,156.91c-5.43-7.1-12.28-21.8-7.69-31-3,1.25-10.89,9.14-9.74,19.09,0,0-7.19-3.5-4.8-17.69S501.75,67.62,475.74,44c4.58,13.17,5.3,23.69,3.14,33.61,0,.57,0,1.14,0,1.71,0-.57,0-1.14,0-1.71-2.67,12.28-9.78,23.66-19.5,38.08-23.91,35.45-26.4,60.6-14.4,89.7-.76-25.26,12.38-40.74,25.9-51.48-2.76,16.23,6.91,39.28,16.48,39.28,6.65,0,9.12-12.15,9.09-12.46.89,13.62,10.42,15.7,7.66,33.35a55.43,55.43,0,0,0,5.27-7.28C518.12,192.38,520.88,173.19,508.42,156.91Z"/><path class="cls-2" d="M501.85,163c6,8.74,21.28,23.3,2.26,51a55.43,55.43,0,0,0,5.27-7.28c8.74-14.38,11.5-33.57-1-49.85-5.43-7.1-12.28-21.8-7.69-31C494.24,133.58,493.56,151.15,501.85,163Z"/><path class="cls-3" d="M478.88,77.57a157.23,157.23,0,0,1-2.12,28.87C471.41,136.76,491,145,491,145s-7.19-3.5-4.8-17.69S501.75,67.62,475.74,44C480.32,57.13,481,67.65,478.88,77.57Z"/><path d="M143.05,147c0-8.35-2.18-14.94-6.49-19.59s-10.53-7.09-18.34-7.09H93.05v85h19.16V176.08h2.87l10.61,29.27h19.49v-3.69l-11.82-31.4C139.8,165.41,143.05,157.59,143.05,147Zm-30.84-8.26h5.86c1.74,0,5.82,0,5.82,9.58a13.09,13.09,0,0,1-1.72,7.24,4.74,4.74,0,0,1-4.34,2.12h-5.62Z"/><rect x="150.41" y="120.31" width="19.17" height="85.04"/><polygon points="264.13 162.47 247.41 120.31 229.03 120.31 229.03 205.35 248.2 205.35 248.2 163.27 264.87 205.35 283.25 205.35 283.25 120.31 264.13 120.31 264.13 162.47"/><path d="M312.73,120.31h-21.1v85h20.72c9.32,0,16.76-3.33,22.12-9.9,5.24-6.42,7.89-15.29,7.89-26.35v-13c-.1-10.88-2.81-19.62-8-26C329,123.61,321.7,120.31,312.73,120.31ZM312.59,187h-1.8V138.72h2.64c3.57.12,6,1.26,7.38,3.49,1.08,1.75,2.38,5.66,2.38,14.35v13.88c-.11,8-1.48,11.7-2.62,13.37C319.11,186,316.5,187,312.59,187Z"/><polygon points="368.69 120.31 349.53 120.31 349.53 205.35 393.68 205.35 393.68 186.99 368.69 186.99 368.69 120.31"/><polygon points="409.06 150.05 400.26 120.31 379.38 120.31 399.39 174.28 399.39 205.35 418.75 205.35 418.75 174.28 438.71 120.31 417.83 120.31 409.06 150.05"/><polygon points="43.96 120.31 43.96 205.35 63.13 205.35 63.13 172.67 82.42 172.67 82.42 154.31 63.13 154.31 63.13 138.72 87.91 138.72 87.91 120.31 43.96 120.31"/><polygon points="197.66 186.99 197.66 170.69 217 170.69 217 152.72 197.66 152.72 197.66 138.72 223.8 138.72 223.8 120.31 178.49 120.31 178.49 205.35 223.9 205.35 223.9 186.99 197.66 186.99"/><rect x="579.64" y="120.31" width="19.17" height="85.04"/><path d="M657.77,147c0-8.35-2.18-14.94-6.49-19.59s-10.53-7.09-18.35-7.09H607.76v85h19.17V176.08h2.87l10.6,29.27h19.5v-3.69l-11.82-31.4C654.51,165.41,657.77,157.59,657.77,147Zm-30.84-8.26h5.86c1.74,0,5.81,0,5.81,9.58a13.09,13.09,0,0,1-1.72,7.24,4.71,4.71,0,0,1-4.33,2.12h-5.62Z"/><polygon points="529.97 120.31 529.97 205.35 549.13 205.35 549.13 172.67 568.43 172.67 568.43 154.31 549.13 154.31 549.13 138.72 573.92 138.72 573.92 120.31 529.97 120.31"/><polygon points="683.67 186.99 683.67 170.69 703.01 170.69 703.01 152.72 683.67 152.72 683.67 138.72 709.81 138.72 709.81 120.31 664.5 120.31 664.5 205.35 709.91 205.35 709.91 186.99 683.67 186.99"/></svg>